<?xml version="1.0" encoding="UTF-8"?>
<svg xmlns="http://www.w3.org/2000/svg" xmlns:xlink="http://www.w3.org/1999/xlink" width="px" height="35px" viewBox="0 0 35 35" version="1.1">
<g id="surface1">
<path style=" stroke:none;fill-rule:nonzero;fill:rgb(90.980392%,25.490196%,25.882353%);fill-opacity:1;" d="M 24.746094 34.488281 L 10.253906 34.488281 C 10.101562 34.488281 9.980469 34.363281 9.980469 34.214844 L 9.980469 33.941406 C 9.980469 33.109375 10.652344 32.4375 11.484375 32.4375 L 23.515625 32.4375 C 24.347656 32.4375 25.019531 33.109375 25.019531 33.941406 L 25.019531 34.214844 C 25.019531 34.363281 24.898438 34.488281 24.746094 34.488281 Z M 24.746094 34.488281 "/>
<path style=" stroke:none;fill-rule:nonzero;fill:rgb(72.54902%,18.823529%,19.215686%);fill-opacity:1;" d="M 23.515625 32.4375 L 21.464844 32.4375 C 22.296875 32.4375 22.96875 33.109375 22.96875 33.941406 L 22.96875 34.214844 C 22.96875 34.363281 22.847656 34.488281 22.695312 34.488281 L 24.746094 34.488281 C 24.898438 34.488281 25.019531 34.363281 25.019531 34.214844 L 25.019531 33.941406 C 25.019531 33.109375 24.347656 32.4375 23.515625 32.4375 Z M 23.515625 32.4375 "/>
<path style=" stroke:none;fill-rule:nonzero;fill:rgb(90.980392%,25.490196%,25.882353%);fill-opacity:1;" d="M 22.28125 32.4375 L 12.71875 32.4375 C 17.179688 29.875 15.199219 21.621094 15.199219 21.621094 L 19.800781 21.621094 C 19.800781 21.621094 17.820312 29.875 22.28125 32.4375 Z M 22.28125 32.4375 "/>
<path style=" stroke:none;fill-rule:nonzero;fill:rgb(72.54902%,18.823529%,19.215686%);fill-opacity:1;" d="M 19.800781 21.621094 L 17.75 21.621094 C 17.75 21.621094 15.769531 29.875 20.230469 32.4375 L 22.28125 32.4375 C 17.820312 29.875 19.800781 21.621094 19.800781 21.621094 Z M 19.800781 21.621094 "/>
<path style=" stroke:none;fill-rule:nonzero;fill:rgb(72.54902%,18.823529%,19.215686%);fill-opacity:1;" d="M 6.253906 3.027344 C 3.082031 3.027344 0.511719 5.597656 0.511719 8.769531 C 0.511719 11.9375 3.082031 14.511719 6.253906 14.511719 C 9.425781 14.511719 11.996094 11.9375 11.996094 8.769531 C 11.996094 5.597656 9.425781 3.027344 6.253906 3.027344 Z M 6.253906 12.460938 C 4.21875 12.460938 2.5625 10.804688 2.5625 8.769531 C 2.5625 6.730469 4.21875 5.078125 6.253906 5.078125 C 8.289062 5.078125 9.945312 6.730469 9.945312 8.769531 C 9.945312 10.804688 8.289062 12.460938 6.253906 12.460938 Z M 6.253906 12.460938 "/>
<path style=" stroke:none;fill-rule:nonzero;fill:rgb(72.54902%,18.823529%,19.215686%);fill-opacity:1;" d="M 28.746094 3.027344 C 25.574219 3.027344 23.003906 5.597656 23.003906 8.769531 C 23.003906 11.9375 25.574219 14.511719 28.746094 14.511719 C 31.917969 14.511719 34.488281 11.9375 34.488281 8.769531 C 34.488281 5.597656 31.917969 3.027344 28.746094 3.027344 Z M 28.746094 12.460938 C 26.710938 12.460938 25.054688 10.804688 25.054688 8.769531 C 25.054688 6.730469 26.710938 5.078125 28.746094 5.078125 C 30.78125 5.078125 32.4375 6.730469 32.4375 8.769531 C 32.4375 10.804688 30.78125 12.460938 28.746094 12.460938 Z M 28.746094 12.460938 "/>
<path style=" stroke:none;fill-rule:nonzero;fill:rgb(90.980392%,25.490196%,25.882353%);fill-opacity:1;" d="M 17.5 24.773438 C 11.515625 24.773438 6.761719 19.742188 7.097656 13.769531 L 7.824219 0.90625 C 7.835938 0.6875 8.019531 0.511719 8.242188 0.511719 L 26.757812 0.511719 C 26.980469 0.511719 27.164062 0.6875 27.175781 0.90625 L 27.902344 13.769531 C 28.238281 19.742188 23.484375 24.773438 17.5 24.773438 Z M 17.5 24.773438 "/>
<path style=" stroke:none;fill-rule:nonzero;fill:rgb(72.54902%,18.823529%,19.215686%);fill-opacity:1;" d="M 27.902344 13.769531 L 27.175781 0.90625 C 27.164062 0.6875 26.980469 0.511719 26.757812 0.511719 L 24.707031 0.511719 C 24.929688 0.511719 25.113281 0.6875 25.125 0.90625 L 25.851562 13.769531 C 26.167969 19.398438 21.964844 24.1875 16.472656 24.722656 C 16.8125 24.753906 17.152344 24.773438 17.5 24.773438 C 23.484375 24.773438 28.238281 19.742188 27.902344 13.769531 Z M 27.902344 13.769531 "/>
<path style=" stroke:none;fill-rule:nonzero;fill:rgb(0%,0%,0%);fill-opacity:1;" d="M 28.746094 2.511719 C 28.421875 2.511719 28.101562 2.539062 27.785156 2.585938 L 27.6875 0.878906 C 27.660156 0.386719 27.253906 0 26.757812 0 L 25.050781 0 C 24.371094 0.0234375 24.371094 1.003906 25.050781 1.023438 L 26.667969 1.023438 L 27.390625 13.796875 C 27.542969 16.542969 26.589844 19.160156 24.699219 21.160156 C 20.988281 25.265625 14.011719 25.265625 10.300781 21.160156 C 8.410156 19.160156 7.457031 16.542969 7.609375 13.796875 L 8.332031 1.023438 L 22.664062 1.023438 C 23.34375 1 23.34375 0.0234375 22.664062 0 L 8.242188 0 C 7.75 0 7.339844 0.386719 7.3125 0.878906 L 7.214844 2.585938 C 3.476562 1.976562 -0.03125 4.972656 0 8.769531 C -0.0117188 12.332031 3.027344 15.214844 6.589844 15.011719 C 6.773438 19.730469 10.496094 24.082031 15.113281 25.027344 C 15.203125 27.484375 14.808594 30.546875 12.574219 31.925781 L 11.484375 31.925781 C 10.371094 31.925781 9.46875 32.828125 9.46875 33.941406 L 9.46875 34.214844 C 9.46875 34.648438 9.820312 35 10.253906 35 L 24.746094 35 C 25.179688 35 25.53125 34.648438 25.53125 34.214844 L 25.53125 33.941406 C 25.53125 32.828125 24.628906 31.925781 23.515625 31.925781 L 22.421875 31.925781 C 21.589844 31.410156 20.949219 30.617188 20.523438 29.570312 C 20.417969 29.308594 20.121094 29.179688 19.855469 29.289062 C 19.59375 29.394531 19.46875 29.695312 19.574219 29.957031 C 19.886719 30.726562 20.300781 31.386719 20.8125 31.925781 L 14.191406 31.925781 C 15.84375 30.179688 16.203125 27.476562 16.144531 25.203125 C 17.035156 25.3125 17.96875 25.3125 18.855469 25.203125 C 18.835938 26.019531 18.871094 26.792969 18.960938 27.511719 C 18.996094 27.792969 19.261719 27.992188 19.535156 27.957031 C 19.816406 27.921875 20.015625 27.664062 19.980469 27.382812 C 19.886719 26.65625 19.855469 25.867188 19.886719 25.027344 C 24.503906 24.082031 28.226562 19.730469 28.414062 15.011719 C 31.972656 15.214844 35.011719 12.332031 35 8.769531 C 35 5.320312 32.195312 2.511719 28.746094 2.511719 Z M 1.027344 8.769531 C 0.992188 5.558594 4.007812 3.035156 7.15625 3.617188 L 7.101562 4.648438 C 3.773438 3.949219 1.011719 7.398438 2.417969 10.488281 C 2.535156 10.75 2.84375 10.859375 3.097656 10.746094 C 3.355469 10.628906 3.46875 10.324219 3.355469 10.066406 C 2.261719 7.664062 4.488281 5.023438 7.042969 5.6875 L 6.691406 11.914062 C 6.023438 12.011719 5.328125 11.882812 4.742188 11.5625 C 4.492188 11.425781 4.183594 11.519531 4.046875 11.769531 C 3.910156 12.015625 4.003906 12.328125 4.25 12.464844 C 4.972656 12.855469 5.8125 13.03125 6.632812 12.953125 L 6.585938 13.738281 C 6.582031 13.820312 6.578125 13.90625 6.574219 13.988281 C 3.585938 14.183594 1.015625 11.765625 1.027344 8.769531 Z M 23.515625 32.949219 C 24.0625 32.949219 24.507812 33.394531 24.507812 33.941406 L 24.507812 33.972656 L 10.492188 33.972656 L 10.492188 33.941406 C 10.492188 33.394531 10.9375 32.949219 11.484375 32.949219 Z M 27.960938 5.6875 C 29.925781 5.160156 31.953125 6.726562 31.925781 8.769531 C 31.9375 10.675781 30.195312 12.191406 28.308594 11.914062 Z M 28.746094 13.996094 C 28.636719 13.996094 28.53125 13.992188 28.425781 13.988281 C 28.421875 13.90625 28.417969 13.820312 28.414062 13.738281 L 28.367188 12.953125 C 30.808594 13.1875 32.960938 11.21875 32.949219 8.769531 C 32.980469 6.144531 30.460938 4.09375 27.902344 4.648438 L 27.84375 3.617188 C 30.996094 3.035156 34.007812 5.558594 33.976562 8.769531 C 33.976562 11.652344 31.628906 13.996094 28.746094 13.996094 Z M 28.746094 13.996094 "/>
<path style=" stroke:none;fill-rule:evenodd;fill:rgb(100%,100%,100%);fill-opacity:1;" d="M 11.851562 16.722656 L 14.128906 16.722656 C 14.664062 16.722656 14.929688 16.722656 15.167969 16.65625 C 15.429688 16.578125 15.671875 16.441406 15.871094 16.25 C 16.050781 16.074219 16.183594 15.84375 16.441406 15.390625 L 16.453125 15.378906 L 19.398438 10.164062 C 19.660156 9.707031 19.792969 9.476562 19.851562 9.234375 C 19.914062 8.96875 19.914062 8.695312 19.851562 8.433594 C 19.792969 8.191406 19.660156 7.964844 19.402344 7.511719 L 19.398438 7.503906 L 18.242188 5.488281 C 18.003906 5.066406 17.882812 4.859375 17.730469 4.777344 C 17.566406 4.695312 17.371094 4.695312 17.207031 4.777344 C 17.054688 4.859375 16.933594 5.066406 16.695312 5.488281 L 11.078125 15.386719 L 11.074219 15.398438 C 10.839844 15.804688 10.722656 16.007812 10.734375 16.179688 C 10.746094 16.363281 10.839844 16.527344 10.996094 16.628906 C 11.140625 16.722656 11.375 16.722656 11.851562 16.722656 Z M 23.128906 16.722656 L 19.871094 16.722656 C 19.390625 16.722656 19.148438 16.722656 19.007812 16.628906 C 18.851562 16.527344 18.757812 16.359375 18.746094 16.175781 C 18.738281 16.007812 18.855469 15.800781 19.09375 15.390625 L 19.097656 15.382812 L 20.726562 12.589844 C 20.964844 12.175781 21.085938 11.972656 21.234375 11.894531 C 21.398438 11.8125 21.59375 11.8125 21.757812 11.894531 C 21.90625 11.96875 22.023438 12.167969 22.25 12.554688 L 22.269531 12.585938 L 23.902344 15.378906 C 23.910156 15.390625 23.917969 15.40625 23.925781 15.417969 C 24.152344 15.808594 24.265625 16.007812 24.257812 16.171875 C 24.25 16.355469 24.152344 16.527344 23.996094 16.628906 C 23.851562 16.722656 23.609375 16.722656 23.128906 16.722656 Z M 23.128906 16.722656 "/>
</g>
</svg>
