<svg width="72" height="72" viewBox="0 0 72 72" fill="none" xmlns="http://www.w3.org/2000/svg">
<path d="M50.9061 70.9453H21.0937C20.7831 70.9453 20.5312 70.6935 20.5312 70.3828V69.8203C20.5312 68.1117 21.9164 66.7266 23.625 66.7266H48.3749C50.0835 66.7266 51.4686 68.1117 51.4686 69.8203V70.3828C51.4686 70.6935 51.2168 70.9453 50.9061 70.9453Z" fill="#E84142"/>
<path d="M48.375 66.7266H44.1562C45.8648 66.7266 47.25 68.1117 47.25 69.8203V70.3828C47.25 70.6935 46.9981 70.9453 46.6875 70.9453H50.9063C51.2169 70.9453 51.4688 70.6935 51.4688 70.3828V69.8203C51.4688 68.1116 50.0836 66.7266 48.375 66.7266Z" fill="#B93031"/>
<path d="M45.8329 66.7267H26.167C35.3414 61.4533 31.2637 44.4812 31.2637 44.4812H40.7351C40.7349 44.4812 36.6572 61.4533 45.8329 66.7267Z" fill="#E84142"/>
<path d="M40.735 44.4812H36.5163C36.5163 44.4812 32.4384 61.4532 41.6141 66.7267H45.8328C36.6572 61.4532 40.735 44.4812 40.735 44.4812Z" fill="#B93031"/>
<path d="M12.8672 6.22433C6.3436 6.22433 1.05469 11.5118 1.05469 18.0369C1.05469 24.5605 6.3436 29.8494 12.8672 29.8494C19.3908 29.8494 24.6797 24.5605 24.6797 18.0369C24.6797 11.5118 19.3908 6.22433 12.8672 6.22433ZM12.8672 25.6306C8.67939 25.6306 5.27345 22.2233 5.27345 18.0369C5.27345 13.849 8.67939 10.4431 12.8672 10.4431C17.055 10.4431 20.461 13.849 20.461 18.0369C20.461 22.2233 17.055 25.6306 12.8672 25.6306Z" fill="#B93031"/>
<path d="M59.1328 6.22433C52.6092 6.22433 47.3203 11.5118 47.3203 18.0369C47.3203 24.5605 52.6092 29.8494 59.1328 29.8494C65.6564 29.8494 70.9454 24.5605 70.9454 18.0369C70.9454 11.5118 65.6564 6.22433 59.1328 6.22433ZM59.1328 25.6306C54.945 25.6306 51.5391 22.2233 51.5391 18.0369C51.5391 13.849 54.945 10.4431 59.1328 10.4431C63.3207 10.4431 66.7266 13.849 66.7266 18.0369C66.7266 22.2233 63.3207 25.6306 59.1328 25.6306Z" fill="#B93031"/>
<path d="M36.0011 50.9603C23.6905 50.9603 13.9106 40.6132 14.6041 28.3222L16.0966 1.86566C16.1224 1.41074 16.4987 1.05496 16.9543 1.05496H55.0475C55.5031 1.05496 55.8796 1.41074 55.9052 1.86566L57.3978 28.3223C58.0915 40.6132 48.3116 50.9603 36.0011 50.9603Z" fill="#E84142"/>
<path d="M57.3971 28.3222L55.9044 1.86566C55.8787 1.41074 55.5024 1.05496 55.0467 1.05496H50.828C51.2836 1.05496 51.6601 1.41074 51.6857 1.86566L53.1783 28.3223C53.8316 39.9022 45.188 49.7552 33.8906 50.8567C34.5845 50.9243 35.2877 50.9605 36 50.9605C48.3107 50.9603 58.0905 40.6132 57.3971 28.3222Z" fill="#B93031"/>
<path d="M59.1331 5.1695C58.4699 5.1695 57.8084 5.22096 57.156 5.32179L56.9576 1.80632C56.9008 0.793403 56.0615 0 55.0469 0H51.5302C50.1337 0.0483748 50.1348 2.06155 51.5302 2.10937H54.8619L56.3442 28.3814C56.6631 34.0334 54.6972 39.4117 50.8087 43.5258C43.1757 51.9768 28.8246 51.9765 21.1919 43.5258C17.3033 39.4118 15.3374 34.0334 15.6563 28.3814L17.1387 2.10937H46.6265C48.023 2.06099 48.0219 0.0478123 46.6265 0H16.9537C15.9391 0 15.0999 0.793403 15.0431 1.80604L14.8447 5.32165C7.15039 4.06447 -0.0677234 10.2321 0.000479505 18.0368C-0.0227235 25.3699 6.23141 31.3003 13.5527 30.8841C13.9338 40.5886 21.5893 49.5421 31.0876 51.482C31.2776 56.5419 30.4633 62.8431 25.8698 65.6719H23.6254C21.3379 65.6719 19.477 67.5328 19.477 69.8203V70.3828C19.477 71.2745 20.2024 72 21.0941 72H50.9065C51.7982 72 52.5237 71.2745 52.5237 70.3828V69.8203C52.5237 67.5328 50.6628 65.6719 48.3753 65.6719H46.127C44.4124 64.6145 43.0989 62.9879 42.2227 60.8298C42.0035 60.2902 41.3889 60.0299 40.8486 60.2493C40.3089 60.4684 40.0491 61.0836 40.2681 61.6233C40.9123 63.2103 41.7633 64.5636 42.8111 65.672H29.1945C32.5948 62.0819 33.3295 56.524 33.2092 51.8454C35.04 52.0714 36.9608 52.0714 38.7916 51.8454C38.7488 53.5255 38.82 55.1201 39.0084 56.5971C39.0795 57.1773 39.6216 57.5859 40.1881 57.5099C40.7658 57.4362 41.1746 56.908 41.1008 56.3302C40.9105 54.8382 40.8471 53.2106 40.9115 51.4828C50.411 49.5431 58.0663 40.5896 58.4478 30.8844C65.7693 31.3003 72.0231 25.3705 72.0001 18.0371C72.0002 10.9417 66.228 5.1695 59.1331 5.1695ZM2.10985 18.0366C2.04502 11.4359 8.24121 6.24401 14.7251 7.44016L14.6052 9.56527C7.76295 8.12528 2.08102 15.2182 4.97718 21.5769C5.21666 22.1135 5.85327 22.3428 6.37189 22.1056C6.90289 21.8665 7.1397 21.242 6.90064 20.711C4.65655 15.7685 9.23149 10.336 14.4847 11.7008L13.7618 24.5118C12.3934 24.7084 10.9643 24.4456 9.75461 23.7861C9.24302 23.5079 8.60262 23.6969 8.32404 24.2086C8.04574 24.7204 8.23489 25.3608 8.74662 25.6391C10.2295 26.4454 11.9555 26.8086 13.6415 26.6469L13.5503 28.263C13.5408 28.4336 13.5338 28.6037 13.528 28.7737C7.3789 29.1738 2.08763 24.1998 2.10985 18.0366ZM48.3753 67.7813C49.4996 67.7813 50.4143 68.696 50.4143 69.8203V69.8906H21.5863V69.8203C21.5863 68.696 22.5011 67.7813 23.6254 67.7813H48.3753ZM57.5159 11.7007C61.5639 10.6133 65.7299 13.837 65.672 18.0368C65.7032 21.9591 62.1188 25.0832 58.2387 24.5118L57.5159 11.7007ZM59.1331 28.7944C58.9134 28.7944 58.6929 28.787 58.4728 28.7736C58.4669 28.6036 58.46 28.4333 58.4505 28.2628L58.3592 26.6466C63.3756 27.1318 67.808 23.0751 67.7815 18.0366C67.8431 12.6386 62.6647 8.42509 57.3954 9.56527L57.2754 7.4403C63.76 6.24485 69.9552 11.4356 69.8907 18.0368C69.8908 23.9686 65.065 28.7944 59.1331 28.7944Z" fill="black"/>
<path fill-rule="evenodd" clip-rule="evenodd" d="M24.3831 34.3983H29.0644C30.165 34.3983 30.7153 34.3983 31.2053 34.2625C31.7443 34.104 32.238 33.8211 32.6451 33.4288C33.022 33.0705 33.2934 32.5952 33.8248 31.6635L33.8437 31.6333L39.9083 20.9054C40.4473 19.9661 40.7149 19.4909 40.8355 18.9929C40.9636 18.4535 40.9636 17.8877 40.8355 17.3483C40.7149 16.8541 40.4473 16.3826 39.9158 15.4547L39.9045 15.4358L37.5299 11.2865C37.0362 10.4227 36.7874 9.99267 36.4746 9.83046C36.1391 9.66072 35.7358 9.66072 35.3966 9.83046C35.0837 9.99267 34.835 10.4227 34.345 11.2865L22.7925 31.6522L22.7801 31.6738C22.3021 32.5119 22.0614 32.9339 22.0801 33.2817C22.1027 33.6589 22.2987 34.0022 22.6191 34.2096C22.9169 34.3983 23.4031 34.3983 24.3831 34.3983ZM47.5823 34.3983H40.8769C39.8894 34.3983 39.3919 34.3983 39.1017 34.2096C38.7813 34.0022 38.5853 33.6551 38.5627 33.2742C38.5438 32.9271 38.7888 32.5047 39.2788 31.6597L39.2788 31.6597L39.2901 31.6408L42.6371 25.8959C43.1271 25.0472 43.3759 24.6285 43.685 24.4663C44.0204 24.2965 44.42 24.2965 44.7554 24.4663C45.0607 24.6247 45.302 25.0283 45.7731 25.8242L45.8108 25.8884L49.1691 31.6333C49.1842 31.6635 49.1993 31.6899 49.2181 31.7163L49.2195 31.7187C49.6822 32.5206 49.9192 32.9312 49.9041 33.2704C49.8853 33.6476 49.6855 33.9984 49.3651 34.2059C49.0673 34.3983 48.5698 34.3983 47.5823 34.3983Z" fill="white"/>
</svg>
