<?xml version="1.0" encoding="UTF-8"?>
<svg xmlns="http://www.w3.org/2000/svg" xmlns:xlink="http://www.w3.org/1999/xlink" width="34px" height="35px" viewBox="0 0 34 34" version="1.1">
<defs>
<filter id="alpha" filterUnits="objectBoundingBox" x="0%" y="0%" width="100%" height="100%">
  <feColorMatrix type="matrix" in="SourceGraphic" values="0 0 0 0 1 0 0 0 0 1 0 0 0 0 1 0 0 0 1 0"/>
</filter>
<mask id="mask0">
  <g filter="url(#alpha)">
<rect x="0" y="0" width="34" height="34" style="fill:rgb(0%,0%,0%);fill-opacity:0.980392;stroke:none;"/>
  </g>
</mask>
<clipPath id="clip1">
  <rect x="0" y="0" width="34" height="34"/>
</clipPath>
<g id="surface5" clip-path="url(#clip1)">
<path style=" stroke:none;fill-rule:evenodd;fill:rgb(0%,0%,0%);fill-opacity:1;" d="M 25.730469 9.640625 C 25.730469 8.910156 25.730469 8.179688 25.730469 7.449219 C 26.101562 7.457031 26.46875 7.449219 26.832031 7.425781 C 26.832031 6.324219 26.832031 5.226562 26.832031 4.125 C 26.457031 4.125 26.082031 4.125 25.707031 4.125 C 25.707031 5.226562 25.707031 6.324219 25.707031 7.425781 C 25.339844 7.425781 24.972656 7.425781 24.605469 7.425781 C 24.597656 7.425781 24.589844 7.425781 24.582031 7.425781 C 24.582031 6.320312 24.582031 5.210938 24.582031 4.101562 C 24.957031 4.101562 25.332031 4.101562 25.707031 4.101562 C 25.707031 3.742188 25.707031 3.378906 25.707031 3.019531 C 26.089844 3.019531 26.472656 3.019531 26.855469 3.019531 C 26.855469 3.378906 26.855469 3.742188 26.855469 4.101562 C 27.21875 4.101562 27.585938 4.101562 27.953125 4.101562 C 27.953125 5.21875 27.953125 6.332031 27.953125 7.449219 C 27.585938 7.449219 27.21875 7.449219 26.855469 7.449219 C 26.855469 8.179688 26.855469 8.910156 26.855469 9.640625 C 26.480469 9.640625 26.105469 9.640625 25.730469 9.640625 Z M 25.730469 9.640625 "/>
</g>
<mask id="mask1">
  <g filter="url(#alpha)">
<rect x="0" y="0" width="34" height="34" style="fill:rgb(0%,0%,0%);fill-opacity:0.984314;stroke:none;"/>
  </g>
</mask>
<clipPath id="clip2">
  <rect x="0" y="0" width="34" height="34"/>
</clipPath>
<g id="surface8" clip-path="url(#clip2)">
<path style=" stroke:none;fill-rule:evenodd;fill:rgb(0%,0%,0%);fill-opacity:1;" d="M 19.03125 7.425781 C 17.539062 7.425781 16.046875 7.425781 14.558594 7.425781 C 14.550781 7.425781 14.542969 7.425781 14.535156 7.425781 C 14.535156 7.058594 14.535156 6.6875 14.535156 6.320312 C 16.03125 6.320312 17.53125 6.320312 19.03125 6.320312 C 19.03125 6.6875 19.03125 7.058594 19.03125 7.425781 Z M 19.03125 7.425781 "/>
</g>
<mask id="mask2">
  <g filter="url(#alpha)">
<rect x="0" y="0" width="34" height="34" style="fill:rgb(0%,0%,0%);fill-opacity:0.996078;stroke:none;"/>
  </g>
</mask>
<clipPath id="clip3">
  <rect x="0" y="0" width="34" height="34"/>
</clipPath>
<g id="surface11" clip-path="url(#clip3)">
<path style=" stroke:none;fill-rule:evenodd;fill:rgb(0%,0%,0%);fill-opacity:1;" d="M 19.03125 7.425781 C 20.148438 7.425781 21.261719 7.425781 22.378906 7.425781 C 22.378906 7.789062 22.378906 8.148438 22.378906 8.511719 C 21.261719 8.511719 20.148438 8.511719 19.03125 8.511719 C 19.03125 8.148438 19.03125 7.789062 19.03125 7.425781 Z M 19.03125 7.425781 "/>
</g>
<mask id="mask3">
  <g filter="url(#alpha)">
<rect x="0" y="0" width="34" height="34" style="fill:rgb(0%,0%,0%);fill-opacity:0.984314;stroke:none;"/>
  </g>
</mask>
<clipPath id="clip4">
  <rect x="0" y="0" width="34" height="34"/>
</clipPath>
<g id="surface14" clip-path="url(#clip4)">
<path style=" stroke:none;fill-rule:evenodd;fill:rgb(0%,0%,0%);fill-opacity:1;" d="M 24.582031 7.425781 C 24.582031 7.789062 24.582031 8.148438 24.582031 8.511719 C 24.210938 8.503906 23.84375 8.511719 23.480469 8.535156 C 23.480469 8.542969 23.480469 8.550781 23.480469 8.554688 C 23.480469 8.910156 23.480469 9.265625 23.480469 9.617188 C 23.113281 9.617188 22.746094 9.617188 22.378906 9.617188 C 22.378906 9.25 22.378906 8.878906 22.378906 8.511719 C 22.738281 8.511719 23.097656 8.511719 23.457031 8.511719 C 23.457031 8.148438 23.457031 7.789062 23.457031 7.425781 C 23.832031 7.425781 24.207031 7.425781 24.582031 7.425781 Z M 24.582031 7.425781 "/>
</g>
<mask id="mask4">
  <g filter="url(#alpha)">
<rect x="0" y="0" width="34" height="34" style="fill:rgb(0%,0%,0%);fill-opacity:0.992157;stroke:none;"/>
  </g>
</mask>
<clipPath id="clip5">
  <rect x="0" y="0" width="34" height="34"/>
</clipPath>
<g id="surface17" clip-path="url(#clip5)">
<path style=" stroke:none;fill-rule:evenodd;fill:rgb(0%,0%,0%);fill-opacity:1;" d="M 24.605469 9.640625 C 24.972656 9.640625 25.339844 9.640625 25.707031 9.640625 C 25.714844 9.640625 25.722656 9.640625 25.730469 9.640625 C 25.730469 10.011719 25.730469 10.378906 25.730469 10.75 C 25.363281 10.75 24.996094 10.75 24.628906 10.75 C 24.628906 12.566406 24.628906 14.382812 24.628906 16.199219 C 24.996094 16.199219 25.363281 16.199219 25.730469 16.199219 C 25.730469 16.566406 25.730469 16.9375 25.730469 17.304688 C 26.105469 17.304688 26.480469 17.304688 26.855469 17.304688 C 26.855469 18.421875 26.855469 19.535156 26.855469 20.652344 C 26.480469 20.652344 26.105469 20.652344 25.730469 20.652344 C 25.730469 21.019531 25.730469 21.390625 25.730469 21.757812 C 25.363281 21.757812 24.996094 21.757812 24.628906 21.757812 C 24.628906 22.121094 24.628906 22.480469 24.628906 22.84375 C 23.878906 22.84375 23.128906 22.84375 22.378906 22.84375 C 22.378906 23.214844 22.378906 23.582031 22.378906 23.953125 C 22.003906 23.953125 21.628906 23.953125 21.253906 23.953125 C 21.253906 24.3125 21.253906 24.675781 21.253906 25.035156 C 20.886719 25.035156 20.523438 25.035156 20.15625 25.035156 C 20.15625 25.398438 20.15625 25.761719 20.15625 26.121094 C 19.414062 26.121094 18.671875 26.121094 17.929688 26.121094 C 17.929688 26.492188 17.929688 26.859375 17.929688 27.230469 C 17.554688 27.230469 17.179688 27.230469 16.804688 27.230469 C 16.804688 26.5 16.804688 25.765625 16.804688 25.035156 C 17.917969 25.042969 19.027344 25.035156 20.132812 25.015625 C 20.132812 24.652344 20.132812 24.289062 20.132812 23.929688 C 20.507812 23.929688 20.882812 23.929688 21.253906 23.929688 C 21.253906 22.828125 21.253906 21.726562 21.253906 20.628906 C 21.621094 20.628906 21.988281 20.628906 22.355469 20.628906 C 22.347656 20.992188 22.355469 21.355469 22.378906 21.714844 C 23.117188 21.734375 23.859375 21.742188 24.605469 21.734375 C 24.605469 21.367188 24.605469 20.996094 24.605469 20.628906 C 24.972656 20.628906 25.339844 20.628906 25.707031 20.628906 C 25.707031 19.527344 25.707031 18.429688 25.707031 17.328125 C 25.339844 17.328125 24.972656 17.328125 24.605469 17.328125 C 24.605469 16.957031 24.605469 16.589844 24.605469 16.21875 C 23.484375 16.210938 22.367188 16.21875 21.253906 16.242188 C 21.253906 16.605469 21.253906 16.964844 21.253906 17.328125 C 20.882812 17.328125 20.507812 17.328125 20.132812 17.328125 C 20.132812 18.058594 20.132812 18.789062 20.132812 19.519531 C 19.015625 19.519531 17.898438 19.519531 16.78125 19.519531 C 16.78125 19.890625 16.78125 20.257812 16.78125 20.628906 C 16.414062 20.628906 16.046875 20.628906 15.679688 20.628906 C 15.65625 21.71875 15.648438 22.808594 15.65625 23.90625 C 15.289062 23.90625 14.921875 23.90625 14.558594 23.90625 C 14.558594 23.175781 14.558594 22.445312 14.558594 21.714844 C 14.183594 21.714844 13.808594 21.714844 13.433594 21.714844 C 13.433594 21.351562 13.433594 20.988281 13.433594 20.628906 C 13.808594 20.628906 14.183594 20.628906 14.558594 20.628906 C 14.558594 19.527344 14.558594 18.429688 14.558594 17.328125 C 15.671875 17.328125 16.789062 17.328125 17.90625 17.328125 C 18.273438 17.328125 18.640625 17.328125 19.007812 17.328125 C 19.03125 16.96875 19.039062 16.609375 19.03125 16.242188 C 19.402344 16.25 19.769531 16.242188 20.132812 16.21875 C 20.132812 15.121094 20.132812 14.019531 20.132812 12.917969 C 20.140625 12.917969 20.148438 12.917969 20.15625 12.917969 C 20.511719 12.941406 20.871094 12.949219 21.234375 12.941406 C 21.226562 13.667969 21.234375 14.394531 21.253906 15.113281 C 21.992188 15.136719 22.734375 15.140625 23.480469 15.136719 C 23.480469 13.664062 23.480469 12.195312 23.480469 10.726562 C 23.855469 10.726562 24.230469 10.726562 24.605469 10.726562 C 24.605469 10.363281 24.605469 10.003906 24.605469 9.640625 Z M 24.605469 9.640625 "/>
</g>
<mask id="mask5">
  <g filter="url(#alpha)">
<rect x="0" y="0" width="34" height="34" style="fill:rgb(0%,0%,0%);fill-opacity:0.976471;stroke:none;"/>
  </g>
</mask>
<clipPath id="clip6">
  <rect x="0" y="0" width="34" height="34"/>
</clipPath>
<g id="surface20" clip-path="url(#clip6)">
<path style=" stroke:none;fill-rule:evenodd;fill:rgb(0%,0%,0%);fill-opacity:1;" d="M 14.535156 7.425781 C 14.535156 7.789062 14.535156 8.148438 14.535156 8.511719 C 14.171875 8.503906 13.8125 8.511719 13.457031 8.535156 C 13.433594 8.890625 13.425781 9.253906 13.433594 9.617188 C 12.316406 9.617188 11.199219 9.617188 10.082031 9.617188 C 10.082031 9.988281 10.082031 10.359375 10.082031 10.726562 C 9.714844 10.726562 9.347656 10.726562 8.980469 10.726562 C 8.980469 11.828125 8.980469 12.925781 8.980469 14.027344 C 9.347656 14.027344 9.714844 14.027344 10.082031 14.027344 C 10.082031 14.398438 10.082031 14.765625 10.082031 15.136719 C 11.203125 15.140625 12.320312 15.136719 13.433594 15.113281 C 13.457031 14.394531 13.464844 13.667969 13.457031 12.941406 C 13.816406 12.941406 14.175781 12.941406 14.535156 12.941406 C 14.535156 14.398438 14.535156 15.851562 14.535156 17.304688 C 14.175781 17.304688 13.816406 17.304688 13.457031 17.304688 C 13.464844 16.941406 13.457031 16.578125 13.433594 16.21875 C 12.316406 16.21875 11.199219 16.21875 10.082031 16.21875 C 10.082031 16.589844 10.082031 16.957031 10.082031 17.328125 C 9.714844 17.328125 9.347656 17.328125 8.980469 17.328125 C 8.980469 18.429688 8.980469 19.527344 8.980469 20.628906 C 9.347656 20.628906 9.714844 20.628906 10.082031 20.628906 C 10.082031 20.996094 10.082031 21.367188 10.082031 21.734375 C 11.199219 21.734375 12.316406 21.734375 13.433594 21.734375 C 13.433594 22.097656 13.433594 22.460938 13.433594 22.820312 C 13.0625 22.8125 12.695312 22.820312 12.332031 22.84375 C 12.308594 23.195312 12.300781 23.546875 12.308594 23.90625 C 11.9375 23.898438 11.570312 23.90625 11.207031 23.929688 C 11.207031 25.027344 11.207031 26.128906 11.207031 27.230469 C 11.574219 27.230469 11.941406 27.230469 12.308594 27.230469 C 12.300781 27.59375 12.308594 27.957031 12.332031 28.316406 C 13.445312 28.335938 14.558594 28.34375 15.679688 28.335938 C 15.679688 28.707031 15.679688 29.074219 15.679688 29.445312 C 14.558594 29.445312 13.433594 29.445312 12.308594 29.445312 C 12.308594 29.074219 12.308594 28.707031 12.308594 28.335938 C 11.933594 28.335938 11.558594 28.335938 11.183594 28.335938 C 11.183594 27.96875 11.183594 27.597656 11.183594 27.230469 C 10.816406 27.230469 10.449219 27.230469 10.082031 27.230469 C 10.082031 26.121094 10.082031 25.015625 10.082031 23.90625 C 10.449219 23.90625 10.816406 23.90625 11.183594 23.90625 C 11.183594 23.550781 11.183594 23.199219 11.183594 22.84375 C 10.816406 22.84375 10.449219 22.84375 10.082031 22.84375 C 10.082031 22.480469 10.082031 22.121094 10.082031 21.757812 C 9.699219 21.757812 9.316406 21.757812 8.9375 21.757812 C 8.9375 21.390625 8.9375 21.019531 8.9375 20.652344 C 8.570312 20.652344 8.203125 20.652344 7.835938 20.652344 C 7.835938 19.535156 7.835938 18.421875 7.835938 17.304688 C 8.203125 17.304688 8.570312 17.304688 8.9375 17.304688 C 8.9375 16.9375 8.9375 16.566406 8.9375 16.199219 C 9.316406 16.199219 9.699219 16.199219 10.082031 16.199219 C 10.082031 15.851562 10.082031 15.503906 10.082031 15.15625 C 9.699219 15.15625 9.316406 15.15625 8.9375 15.15625 C 8.9375 14.789062 8.9375 14.417969 8.9375 14.050781 C 8.570312 14.050781 8.203125 14.050781 7.835938 14.050781 C 7.835938 12.933594 7.835938 11.820312 7.835938 10.703125 C 8.203125 10.703125 8.570312 10.703125 8.9375 10.703125 C 8.9375 10.335938 8.9375 9.964844 8.9375 9.597656 C 9.316406 9.597656 9.699219 9.597656 10.082031 9.597656 C 10.082031 9.234375 10.082031 8.871094 10.082031 8.511719 C 11.191406 8.511719 12.300781 8.511719 13.410156 8.511719 C 13.410156 8.148438 13.410156 7.789062 13.410156 7.425781 C 13.785156 7.425781 14.160156 7.425781 14.535156 7.425781 Z M 14.535156 7.425781 "/>
</g>
<mask id="mask6">
  <g filter="url(#alpha)">
<rect x="0" y="0" width="34" height="34" style="fill:rgb(0%,0%,0%);fill-opacity:0.968627;stroke:none;"/>
  </g>
</mask>
<clipPath id="clip7">
  <rect x="0" y="0" width="34" height="34"/>
</clipPath>
<g id="surface23" clip-path="url(#clip7)">
<path style=" stroke:none;fill-rule:evenodd;fill:rgb(0%,0%,0%);fill-opacity:1;" d="M 15.679688 27.230469 C 16.054688 27.230469 16.429688 27.230469 16.804688 27.230469 C 16.804688 27.597656 16.804688 27.96875 16.804688 28.335938 C 16.429688 28.335938 16.054688 28.335938 15.679688 28.335938 C 15.679688 27.96875 15.679688 27.597656 15.679688 27.230469 Z M 15.679688 27.230469 "/>
</g>
</defs>
<g id="surface1">
<use xlink:href="#surface5" mask="url(#mask0)"/>
<path style=" stroke:none;fill-rule:evenodd;fill:rgb(0%,40.392157%,5.882353%);fill-opacity:1;" d="M 26.832031 7.425781 C 26.824219 7.425781 26.816406 7.425781 26.808594 7.425781 C 26.808594 6.332031 26.808594 5.242188 26.808594 4.148438 C 26.449219 4.148438 26.089844 4.148438 25.730469 4.148438 C 25.730469 5.242188 25.730469 6.332031 25.730469 7.425781 C 25.722656 7.425781 25.714844 7.425781 25.707031 7.425781 C 25.707031 6.324219 25.707031 5.226562 25.707031 4.125 C 26.082031 4.125 26.457031 4.125 26.832031 4.125 C 26.832031 5.226562 26.832031 6.324219 26.832031 7.425781 Z M 26.832031 7.425781 "/>
<path style=" stroke:none;fill-rule:evenodd;fill:rgb(0%,57.254902%,9.803922%);fill-opacity:1;" d="M 26.808594 7.425781 C 26.449219 7.425781 26.089844 7.425781 25.730469 7.425781 C 25.730469 6.332031 25.730469 5.242188 25.730469 4.148438 C 26.089844 4.148438 26.449219 4.148438 26.808594 4.148438 C 26.808594 5.242188 26.808594 6.332031 26.808594 7.425781 Z M 26.808594 7.425781 "/>
<use xlink:href="#surface8" mask="url(#mask1)"/>
<use xlink:href="#surface11" mask="url(#mask2)"/>
<use xlink:href="#surface14" mask="url(#mask3)"/>
<path style=" stroke:none;fill-rule:evenodd;fill:rgb(0%,56.862745%,9.803922%);fill-opacity:1;" d="M 14.558594 7.425781 C 16.046875 7.425781 17.539062 7.425781 19.03125 7.425781 C 19.03125 7.789062 19.03125 8.148438 19.03125 8.511719 C 19.03125 8.519531 19.03125 8.527344 19.03125 8.535156 C 19.007812 8.175781 19 7.816406 19.007812 7.449219 C 18.265625 7.449219 17.523438 7.449219 16.78125 7.449219 C 16.78125 7.808594 16.78125 8.171875 16.78125 8.535156 C 17.144531 8.554688 17.511719 8.5625 17.882812 8.554688 C 17.882812 8.917969 17.882812 9.28125 17.882812 9.640625 C 19.007812 9.640625 20.132812 9.640625 21.253906 9.640625 C 21.253906 10.734375 21.253906 11.828125 21.253906 12.917969 C 20.886719 12.917969 20.523438 12.917969 20.15625 12.917969 C 20.148438 12.917969 20.140625 12.917969 20.132812 12.917969 C 20.132812 12.558594 20.132812 12.195312 20.132812 11.835938 C 19.769531 11.8125 19.402344 11.804688 19.03125 11.8125 C 19.039062 11.445312 19.03125 11.085938 19.007812 10.726562 C 17.523438 10.726562 16.039062 10.726562 14.558594 10.726562 C 14.558594 10.363281 14.558594 10.003906 14.558594 9.640625 C 14.195312 9.617188 13.828125 9.613281 13.457031 9.617188 C 13.457031 9.265625 13.457031 8.910156 13.457031 8.554688 C 13.828125 8.5625 14.195312 8.554688 14.558594 8.535156 C 14.558594 8.164062 14.558594 7.796875 14.558594 7.425781 Z M 14.558594 7.425781 "/>
<path style=" stroke:none;fill-rule:evenodd;fill:rgb(0%,69.803922%,12.54902%);fill-opacity:1;" d="M 19.03125 8.535156 C 20.140625 8.535156 21.25 8.535156 22.355469 8.535156 C 22.355469 8.902344 22.355469 9.273438 22.355469 9.640625 C 22.734375 9.648438 23.109375 9.640625 23.480469 9.617188 C 23.480469 9.265625 23.480469 8.910156 23.480469 8.554688 C 23.855469 8.554688 24.230469 8.554688 24.605469 8.554688 C 24.605469 8.917969 24.605469 9.28125 24.605469 9.640625 C 24.582031 9.992188 24.574219 10.347656 24.582031 10.703125 C 24.210938 10.695312 23.84375 10.703125 23.480469 10.726562 C 23.480469 12.195312 23.480469 13.664062 23.480469 15.136719 C 22.734375 15.140625 21.992188 15.136719 21.253906 15.113281 C 21.253906 14.382812 21.253906 13.652344 21.253906 12.917969 C 21.253906 11.828125 21.253906 10.734375 21.253906 9.640625 C 20.144531 9.617188 19.027344 9.613281 17.90625 9.617188 C 17.90625 9.257812 17.90625 8.894531 17.90625 8.535156 C 17.53125 8.535156 17.15625 8.535156 16.78125 8.535156 C 16.78125 8.171875 16.78125 7.808594 16.78125 7.449219 C 17.523438 7.449219 18.265625 7.449219 19.007812 7.449219 C 19 7.816406 19.007812 8.175781 19.03125 8.535156 Z M 19.03125 8.535156 "/>
<path style=" stroke:none;fill-rule:evenodd;fill:rgb(0%,56.470588%,9.803922%);fill-opacity:1;" d="M 24.605469 7.425781 C 24.972656 7.425781 25.339844 7.425781 25.707031 7.425781 C 25.707031 8.164062 25.707031 8.902344 25.707031 9.640625 C 25.339844 9.640625 24.972656 9.640625 24.605469 9.640625 C 24.605469 9.28125 24.605469 8.917969 24.605469 8.554688 C 24.230469 8.554688 23.855469 8.554688 23.480469 8.554688 C 23.480469 8.550781 23.480469 8.542969 23.480469 8.535156 C 23.855469 8.535156 24.230469 8.535156 24.605469 8.535156 C 24.605469 8.164062 24.605469 7.796875 24.605469 7.425781 Z M 24.605469 7.425781 "/>
<path style=" stroke:none;fill-rule:evenodd;fill:rgb(0%,12.156863%,1.176471%);fill-opacity:1;" d="M 25.707031 7.425781 C 25.714844 7.425781 25.722656 7.425781 25.730469 7.425781 C 26.089844 7.425781 26.449219 7.425781 26.808594 7.425781 C 26.816406 7.425781 26.824219 7.425781 26.832031 7.425781 C 26.46875 7.449219 26.101562 7.457031 25.730469 7.449219 C 25.730469 8.179688 25.730469 8.910156 25.730469 9.640625 C 25.722656 9.640625 25.714844 9.640625 25.707031 9.640625 C 25.707031 8.902344 25.707031 8.164062 25.707031 7.425781 Z M 25.707031 7.425781 "/>
<path style=" stroke:none;fill-rule:evenodd;fill:rgb(0%,12.156863%,1.176471%);fill-opacity:1;" d="M 14.535156 7.425781 C 14.542969 7.425781 14.550781 7.425781 14.558594 7.425781 C 14.558594 7.796875 14.558594 8.164062 14.558594 8.535156 C 14.191406 8.535156 13.824219 8.535156 13.457031 8.535156 C 13.8125 8.511719 14.171875 8.503906 14.535156 8.511719 C 14.535156 8.148438 14.535156 7.789062 14.535156 7.425781 Z M 14.535156 7.425781 "/>
<path style=" stroke:none;fill-rule:evenodd;fill:rgb(0%,17.254902%,1.176471%);fill-opacity:1;" d="M 24.582031 7.425781 C 24.589844 7.425781 24.597656 7.425781 24.605469 7.425781 C 24.605469 7.796875 24.605469 8.164062 24.605469 8.535156 C 24.230469 8.535156 23.855469 8.535156 23.480469 8.535156 C 23.84375 8.511719 24.210938 8.503906 24.582031 8.511719 C 24.582031 8.148438 24.582031 7.789062 24.582031 7.425781 Z M 24.582031 7.425781 "/>
<path style=" stroke:none;fill-rule:evenodd;fill:rgb(0%,36.078431%,5.098039%);fill-opacity:1;" d="M 13.457031 8.535156 C 13.824219 8.535156 14.191406 8.535156 14.558594 8.535156 C 14.195312 8.554688 13.828125 8.5625 13.457031 8.554688 C 13.457031 8.910156 13.457031 9.265625 13.457031 9.617188 C 13.828125 9.613281 14.195312 9.617188 14.558594 9.640625 C 14.191406 9.640625 13.824219 9.640625 13.457031 9.640625 C 13.449219 9.640625 13.441406 9.640625 13.433594 9.640625 C 13.433594 9.632812 13.433594 9.625 13.433594 9.617188 C 13.425781 9.253906 13.433594 8.890625 13.457031 8.535156 Z M 13.457031 8.535156 "/>
<path style=" stroke:none;fill-rule:evenodd;fill:rgb(30.588235%,0.784314%,26.27451%);fill-opacity:1;" d="M 13.433594 9.617188 C 13.433594 9.625 13.433594 9.632812 13.433594 9.640625 C 12.324219 9.640625 11.214844 9.640625 10.105469 9.640625 C 10.105469 10.003906 10.105469 10.363281 10.105469 10.726562 C 10.097656 10.726562 10.089844 10.726562 10.082031 10.726562 C 10.082031 10.359375 10.082031 9.988281 10.082031 9.617188 C 11.199219 9.617188 12.316406 9.617188 13.433594 9.617188 Z M 13.433594 9.617188 "/>
<path style=" stroke:none;fill-rule:evenodd;fill:rgb(0%,63.921569%,11.372549%);fill-opacity:1;" d="M 16.78125 8.535156 C 17.15625 8.535156 17.53125 8.535156 17.90625 8.535156 C 17.90625 8.894531 17.90625 9.257812 17.90625 9.617188 C 19.027344 9.613281 20.144531 9.617188 21.253906 9.640625 C 20.132812 9.640625 19.007812 9.640625 17.882812 9.640625 C 17.882812 9.28125 17.882812 8.917969 17.882812 8.554688 C 17.511719 8.5625 17.144531 8.554688 16.78125 8.535156 Z M 16.78125 8.535156 "/>
<path style=" stroke:none;fill-rule:evenodd;fill:rgb(100%,25.490196%,3.529412%);fill-opacity:1;" d="M 19.03125 8.535156 C 19.03125 8.527344 19.03125 8.519531 19.03125 8.511719 C 20.148438 8.511719 21.261719 8.511719 22.378906 8.511719 C 22.378906 8.878906 22.378906 9.25 22.378906 9.617188 C 22.746094 9.617188 23.113281 9.617188 23.480469 9.617188 C 23.109375 9.640625 22.734375 9.648438 22.355469 9.640625 C 22.355469 9.273438 22.355469 8.902344 22.355469 8.535156 C 21.25 8.535156 20.140625 8.535156 19.03125 8.535156 Z M 19.03125 8.535156 "/>
<path style=" stroke:none;fill-rule:evenodd;fill:rgb(67.45098%,1.176471%,58.823529%);fill-opacity:1;" d="M 13.433594 9.640625 C 13.433594 10.011719 13.433594 10.378906 13.433594 10.75 C 13.800781 10.75 14.167969 10.75 14.535156 10.75 C 14.535156 11.472656 14.535156 12.195312 14.535156 12.917969 C 14.167969 12.917969 13.800781 12.917969 13.433594 12.917969 C 13.433594 13.289062 13.433594 13.65625 13.433594 14.027344 C 13.066406 14.027344 12.699219 14.027344 12.332031 14.027344 C 12.332031 13.65625 12.332031 13.289062 12.332031 12.917969 C 11.589844 12.917969 10.847656 12.917969 10.105469 12.917969 C 10.105469 12.1875 10.105469 11.457031 10.105469 10.726562 C 10.105469 10.363281 10.105469 10.003906 10.105469 9.640625 C 11.214844 9.640625 12.324219 9.640625 13.433594 9.640625 Z M 13.433594 9.640625 "/>
<path style=" stroke:none;fill-rule:evenodd;fill:rgb(0%,0%,0%);fill-opacity:1;" d="M 13.457031 9.640625 C 13.824219 9.640625 14.191406 9.640625 14.558594 9.640625 C 14.558594 10.003906 14.558594 10.363281 14.558594 10.726562 C 14.191406 10.726562 13.824219 10.726562 13.457031 10.726562 C 13.457031 10.363281 13.457031 10.003906 13.457031 9.640625 Z M 13.457031 9.640625 "/>
<use xlink:href="#surface17" mask="url(#mask4)"/>
<path style=" stroke:none;fill-rule:evenodd;fill:rgb(0%,52.54902%,8.235294%);fill-opacity:1;" d="M 24.605469 9.640625 C 24.605469 10.003906 24.605469 10.363281 24.605469 10.726562 C 24.230469 10.726562 23.855469 10.726562 23.480469 10.726562 C 23.84375 10.703125 24.210938 10.695312 24.582031 10.703125 C 24.574219 10.347656 24.582031 9.992188 24.605469 9.640625 Z M 24.605469 9.640625 "/>
<path style=" stroke:none;fill-rule:evenodd;fill:rgb(52.156863%,0.392157%,43.529412%);fill-opacity:1;" d="M 10.082031 10.726562 C 10.082031 11.464844 10.082031 12.203125 10.082031 12.941406 C 10.824219 12.941406 11.566406 12.941406 12.308594 12.941406 C 12.300781 13.308594 12.308594 13.667969 12.332031 14.027344 C 12.699219 14.027344 13.066406 14.027344 13.433594 14.027344 C 13.433594 14.390625 13.433594 14.75 13.433594 15.113281 C 12.324219 15.113281 11.214844 15.113281 10.105469 15.113281 C 10.113281 14.746094 10.105469 14.386719 10.082031 14.027344 C 9.714844 14.027344 9.347656 14.027344 8.980469 14.027344 C 8.980469 12.925781 8.980469 11.828125 8.980469 10.726562 C 9.347656 10.726562 9.714844 10.726562 10.082031 10.726562 Z M 10.082031 10.726562 "/>
<path style=" stroke:none;fill-rule:evenodd;fill:rgb(45.882353%,0.784314%,40%);fill-opacity:1;" d="M 13.433594 9.640625 C 13.441406 9.640625 13.449219 9.640625 13.457031 9.640625 C 13.457031 10.003906 13.457031 10.363281 13.457031 10.726562 C 13.824219 10.726562 14.191406 10.726562 14.558594 10.726562 C 14.558594 11.457031 14.558594 12.1875 14.558594 12.917969 C 14.550781 12.917969 14.542969 12.917969 14.535156 12.917969 C 14.535156 12.195312 14.535156 11.472656 14.535156 10.75 C 14.167969 10.75 13.800781 10.75 13.433594 10.75 C 13.433594 10.378906 13.433594 10.011719 13.433594 9.640625 Z M 13.433594 9.640625 "/>
<path style=" stroke:none;fill-rule:evenodd;fill:rgb(0%,0%,0%);fill-opacity:1;" d="M 14.558594 10.726562 C 16.039062 10.726562 17.523438 10.726562 19.007812 10.726562 C 19.007812 11.097656 19.007812 11.464844 19.007812 11.835938 C 17.898438 11.835938 16.789062 11.835938 15.679688 11.835938 C 15.65625 12.191406 15.648438 12.554688 15.65625 12.917969 C 15.289062 12.917969 14.921875 12.917969 14.558594 12.917969 C 14.558594 12.1875 14.558594 11.457031 14.558594 10.726562 Z M 14.558594 10.726562 "/>
<path style=" stroke:none;fill-rule:evenodd;fill:rgb(0%,37.647059%,5.490196%);fill-opacity:1;" d="M 19.007812 10.726562 C 19.03125 11.085938 19.039062 11.445312 19.03125 11.8125 C 19.402344 11.804688 19.769531 11.8125 20.132812 11.835938 C 19.765625 11.835938 19.398438 11.835938 19.03125 11.835938 C 19.023438 11.835938 19.015625 11.835938 19.007812 11.835938 C 19.007812 11.464844 19.007812 11.097656 19.007812 10.726562 Z M 19.007812 10.726562 "/>
<path style=" stroke:none;fill-rule:evenodd;fill:rgb(67.45098%,1.176471%,58.823529%);fill-opacity:1;" d="M 15.679688 11.835938 C 16.789062 11.835938 17.898438 11.835938 19.007812 11.835938 C 19.015625 11.835938 19.023438 11.835938 19.03125 11.835938 C 19.03125 12.195312 19.03125 12.558594 19.03125 12.917969 C 19.386719 12.941406 19.746094 12.949219 20.109375 12.941406 C 20.109375 13.671875 20.109375 14.402344 20.109375 15.136719 C 19.742188 15.136719 19.375 15.136719 19.007812 15.136719 C 19.007812 15.496094 19.007812 15.859375 19.007812 16.21875 C 19.007812 16.589844 19.007812 16.957031 19.007812 17.328125 C 18.640625 17.328125 18.273438 17.328125 17.90625 17.328125 C 17.90625 17.320312 17.90625 17.3125 17.90625 17.304688 C 17.90625 16.210938 17.90625 15.121094 17.90625 14.027344 C 17.53125 14.027344 17.15625 14.027344 16.78125 14.027344 C 16.78125 13.65625 16.78125 13.289062 16.78125 12.917969 C 16.414062 12.917969 16.046875 12.917969 15.679688 12.917969 C 15.679688 12.558594 15.679688 12.195312 15.679688 11.835938 Z M 15.679688 11.835938 "/>
<path style=" stroke:none;fill-rule:evenodd;fill:rgb(0%,0%,0%);fill-opacity:1;" d="M 19.03125 11.835938 C 19.398438 11.835938 19.765625 11.835938 20.132812 11.835938 C 20.132812 12.195312 20.132812 12.558594 20.132812 12.917969 C 19.765625 12.917969 19.398438 12.917969 19.03125 12.917969 C 19.03125 12.558594 19.03125 12.195312 19.03125 11.835938 Z M 19.03125 11.835938 "/>
<path style=" stroke:none;fill-rule:evenodd;fill:rgb(57.647059%,0.784314%,49.411765%);fill-opacity:1;" d="M 10.082031 10.726562 C 10.089844 10.726562 10.097656 10.726562 10.105469 10.726562 C 10.105469 11.457031 10.105469 12.1875 10.105469 12.917969 C 10.847656 12.917969 11.589844 12.917969 12.332031 12.917969 C 12.332031 13.289062 12.332031 13.65625 12.332031 14.027344 C 12.308594 13.667969 12.300781 13.308594 12.308594 12.941406 C 11.566406 12.941406 10.824219 12.941406 10.082031 12.941406 C 10.082031 12.203125 10.082031 11.464844 10.082031 10.726562 Z M 10.082031 10.726562 "/>
<path style=" stroke:none;fill-rule:evenodd;fill:rgb(14.117647%,1.176471%,11.372549%);fill-opacity:1;" d="M 14.535156 12.917969 C 14.542969 12.917969 14.550781 12.917969 14.558594 12.917969 C 14.558594 14.390625 14.558594 15.859375 14.558594 17.328125 C 14.183594 17.328125 13.808594 17.328125 13.433594 17.328125 C 13.433594 16.964844 13.433594 16.605469 13.433594 16.242188 C 13.433594 16.234375 13.433594 16.226562 13.433594 16.21875 C 13.457031 16.578125 13.464844 16.941406 13.457031 17.304688 C 13.816406 17.304688 14.175781 17.304688 14.535156 17.304688 C 14.535156 15.851562 14.535156 14.398438 14.535156 12.941406 C 14.175781 12.941406 13.816406 12.941406 13.457031 12.941406 C 13.464844 13.667969 13.457031 14.394531 13.433594 15.113281 C 13.433594 14.75 13.433594 14.390625 13.433594 14.027344 C 13.433594 13.65625 13.433594 13.289062 13.433594 12.917969 C 13.800781 12.917969 14.167969 12.917969 14.535156 12.917969 Z M 14.535156 12.917969 "/>
<path style=" stroke:none;fill-rule:evenodd;fill:rgb(52.156863%,0.392157%,43.529412%);fill-opacity:1;" d="M 15.679688 11.835938 C 15.679688 12.195312 15.679688 12.558594 15.679688 12.917969 C 16.046875 12.917969 16.414062 12.917969 16.78125 12.917969 C 16.78125 13.289062 16.78125 13.65625 16.78125 14.027344 C 17.144531 14.050781 17.511719 14.058594 17.882812 14.050781 C 17.875 15.140625 17.882812 16.222656 17.90625 17.304688 C 17.90625 17.3125 17.90625 17.320312 17.90625 17.328125 C 16.789062 17.328125 15.671875 17.328125 14.558594 17.328125 C 14.558594 15.859375 14.558594 14.390625 14.558594 12.917969 C 14.921875 12.917969 15.289062 12.917969 15.65625 12.917969 C 15.648438 12.554688 15.65625 12.191406 15.679688 11.835938 Z M 15.679688 11.835938 "/>
<path style=" stroke:none;fill-rule:evenodd;fill:rgb(0%,14.901961%,1.176471%);fill-opacity:1;" d="M 20.15625 12.917969 C 20.523438 12.917969 20.886719 12.917969 21.253906 12.917969 C 21.253906 13.652344 21.253906 14.382812 21.253906 15.113281 C 21.234375 14.394531 21.226562 13.667969 21.234375 12.941406 C 20.871094 12.949219 20.511719 12.941406 20.15625 12.917969 Z M 20.15625 12.917969 "/>
<path style=" stroke:none;fill-rule:evenodd;fill:rgb(57.647059%,0.784314%,49.019608%);fill-opacity:1;" d="M 16.78125 14.027344 C 17.15625 14.027344 17.53125 14.027344 17.90625 14.027344 C 17.90625 15.121094 17.90625 16.210938 17.90625 17.304688 C 17.882812 16.222656 17.875 15.140625 17.882812 14.050781 C 17.511719 14.058594 17.144531 14.050781 16.78125 14.027344 Z M 16.78125 14.027344 "/>
<path style=" stroke:none;fill-rule:evenodd;fill:rgb(52.156863%,0.784314%,43.529412%);fill-opacity:1;" d="M 19.03125 12.917969 C 19.398438 12.917969 19.765625 12.917969 20.132812 12.917969 C 20.132812 14.019531 20.132812 15.121094 20.132812 16.21875 C 19.757812 16.21875 19.382812 16.21875 19.007812 16.21875 C 19.007812 15.859375 19.007812 15.496094 19.007812 15.136719 C 19.375 15.136719 19.742188 15.136719 20.109375 15.136719 C 20.109375 14.402344 20.109375 13.671875 20.109375 12.941406 C 19.746094 12.949219 19.386719 12.941406 19.03125 12.917969 Z M 19.03125 12.917969 "/>
<use xlink:href="#surface20" mask="url(#mask5)"/>
<path style=" stroke:none;fill-rule:evenodd;fill:rgb(31.372549%,0.392157%,26.27451%);fill-opacity:1;" d="M 10.082031 14.027344 C 10.105469 14.386719 10.113281 14.746094 10.105469 15.113281 C 11.214844 15.113281 12.324219 15.113281 13.433594 15.113281 C 12.320312 15.136719 11.203125 15.140625 10.082031 15.136719 C 10.082031 14.765625 10.082031 14.398438 10.082031 14.027344 Z M 10.082031 14.027344 "/>
<path style=" stroke:none;fill-rule:evenodd;fill:rgb(40.784314%,0.784314%,35.686275%);fill-opacity:1;" d="M 13.433594 16.21875 C 13.433594 16.226562 13.433594 16.234375 13.433594 16.242188 C 12.324219 16.242188 11.214844 16.242188 10.105469 16.242188 C 10.105469 16.605469 10.105469 16.964844 10.105469 17.328125 C 10.097656 17.328125 10.089844 17.328125 10.082031 17.328125 C 10.082031 16.957031 10.082031 16.589844 10.082031 16.21875 C 11.199219 16.21875 12.316406 16.21875 13.433594 16.21875 Z M 13.433594 16.21875 "/>
<path style=" stroke:none;fill-rule:evenodd;fill:rgb(39.607843%,0.392157%,34.509804%);fill-opacity:1;" d="M 21.253906 16.242188 C 22.367188 16.21875 23.484375 16.210938 24.605469 16.21875 C 24.605469 16.589844 24.605469 16.957031 24.605469 17.328125 C 24.582031 16.96875 24.574219 16.609375 24.582031 16.242188 C 23.839844 16.242188 23.097656 16.242188 22.355469 16.242188 C 21.988281 16.242188 21.621094 16.242188 21.253906 16.242188 Z M 21.253906 16.242188 "/>
<path style=" stroke:none;fill-rule:evenodd;fill:rgb(67.45098%,1.176471%,58.823529%);fill-opacity:1;" d="M 13.433594 16.242188 C 13.433594 16.605469 13.433594 16.964844 13.433594 17.328125 C 13.796875 17.351562 14.164062 17.359375 14.535156 17.351562 C 14.535156 18.433594 14.535156 19.519531 14.535156 20.605469 C 14.164062 20.597656 13.796875 20.605469 13.433594 20.628906 C 13.066406 20.628906 12.699219 20.628906 12.332031 20.628906 C 12.332031 19.890625 12.332031 19.152344 12.332031 18.414062 C 11.957031 18.414062 11.582031 18.414062 11.207031 18.414062 C 11.207031 18.050781 11.207031 17.691406 11.207031 17.328125 C 10.839844 17.328125 10.472656 17.328125 10.105469 17.328125 C 10.105469 16.964844 10.105469 16.605469 10.105469 16.242188 C 11.214844 16.242188 12.324219 16.242188 13.433594 16.242188 Z M 13.433594 16.242188 "/>
<path style=" stroke:none;fill-rule:evenodd;fill:rgb(27.843137%,0.784314%,23.921569%);fill-opacity:1;" d="M 19.007812 16.21875 C 19.382812 16.21875 19.757812 16.21875 20.132812 16.21875 C 19.769531 16.242188 19.402344 16.25 19.03125 16.242188 C 19.039062 16.609375 19.03125 16.96875 19.007812 17.328125 C 19.007812 16.957031 19.007812 16.589844 19.007812 16.21875 Z M 19.007812 16.21875 "/>
<path style=" stroke:none;fill-rule:evenodd;fill:rgb(52.156863%,0.392157%,43.529412%);fill-opacity:1;" d="M 21.253906 16.242188 C 21.621094 16.242188 21.988281 16.242188 22.355469 16.242188 C 22.355469 16.605469 22.355469 16.964844 22.355469 17.328125 C 22.730469 17.328125 23.105469 17.328125 23.480469 17.328125 C 23.480469 18.429688 23.480469 19.527344 23.480469 20.628906 C 23.847656 20.628906 24.214844 20.628906 24.582031 20.628906 C 24.582031 20.988281 24.582031 21.351562 24.582031 21.714844 C 23.847656 21.714844 23.113281 21.714844 22.378906 21.714844 C 22.355469 21.355469 22.347656 20.992188 22.355469 20.628906 C 21.988281 20.628906 21.621094 20.628906 21.253906 20.628906 C 21.253906 20.257812 21.253906 19.890625 21.253906 19.519531 C 20.886719 19.519531 20.523438 19.519531 20.15625 19.519531 C 20.15625 18.796875 20.15625 18.074219 20.15625 17.351562 C 20.527344 17.359375 20.894531 17.351562 21.253906 17.328125 C 21.253906 16.964844 21.253906 16.605469 21.253906 16.242188 Z M 21.253906 16.242188 "/>
<path style=" stroke:none;fill-rule:evenodd;fill:rgb(67.45098%,1.176471%,58.823529%);fill-opacity:1;" d="M 22.355469 16.242188 C 23.097656 16.242188 23.839844 16.242188 24.582031 16.242188 C 24.574219 16.609375 24.582031 16.96875 24.605469 17.328125 C 24.972656 17.328125 25.339844 17.328125 25.707031 17.328125 C 25.707031 18.429688 25.707031 19.527344 25.707031 20.628906 C 25.339844 20.628906 24.972656 20.628906 24.605469 20.628906 C 24.597656 20.628906 24.589844 20.628906 24.582031 20.628906 C 24.214844 20.628906 23.847656 20.628906 23.480469 20.628906 C 23.480469 19.527344 23.480469 18.429688 23.480469 17.328125 C 23.105469 17.328125 22.730469 17.328125 22.355469 17.328125 C 22.355469 16.964844 22.355469 16.605469 22.355469 16.242188 Z M 22.355469 16.242188 "/>
<path style=" stroke:none;fill-rule:evenodd;fill:rgb(52.156863%,0.392157%,43.921569%);fill-opacity:1;" d="M 10.082031 17.328125 C 10.089844 17.328125 10.097656 17.328125 10.105469 17.328125 C 10.472656 17.328125 10.839844 17.328125 11.207031 17.328125 C 11.207031 17.691406 11.207031 18.050781 11.207031 18.414062 C 11.582031 18.414062 11.957031 18.414062 12.332031 18.414062 C 12.332031 19.152344 12.332031 19.890625 12.332031 20.628906 C 12.699219 20.628906 13.066406 20.628906 13.433594 20.628906 C 13.433594 20.988281 13.433594 21.351562 13.433594 21.714844 C 12.324219 21.714844 11.214844 21.714844 10.105469 21.714844 C 10.113281 21.347656 10.105469 20.984375 10.082031 20.628906 C 9.714844 20.628906 9.347656 20.628906 8.980469 20.628906 C 8.980469 19.527344 8.980469 18.429688 8.980469 17.328125 C 9.347656 17.328125 9.714844 17.328125 10.082031 17.328125 Z M 10.082031 17.328125 "/>
<path style=" stroke:none;fill-rule:evenodd;fill:rgb(51.764706%,0.784314%,45.490196%);fill-opacity:1;" d="M 13.433594 17.328125 C 13.808594 17.328125 14.183594 17.328125 14.558594 17.328125 C 14.558594 18.429688 14.558594 19.527344 14.558594 20.628906 C 14.183594 20.628906 13.808594 20.628906 13.433594 20.628906 C 13.796875 20.605469 14.164062 20.597656 14.535156 20.605469 C 14.535156 19.519531 14.535156 18.433594 14.535156 17.351562 C 14.164062 17.359375 13.796875 17.351562 13.433594 17.328125 Z M 13.433594 17.328125 "/>
<path style=" stroke:none;fill-rule:evenodd;fill:rgb(40%,0.392157%,32.941176%);fill-opacity:1;" d="M 21.253906 17.328125 C 20.894531 17.351562 20.527344 17.359375 20.15625 17.351562 C 20.15625 18.074219 20.15625 18.796875 20.15625 19.519531 C 20.148438 19.519531 20.140625 19.519531 20.132812 19.519531 C 20.132812 18.789062 20.132812 18.058594 20.132812 17.328125 C 20.507812 17.328125 20.882812 17.328125 21.253906 17.328125 Z M 21.253906 17.328125 "/>
<path style=" stroke:none;fill-rule:evenodd;fill:rgb(51.764706%,0.392157%,43.137255%);fill-opacity:1;" d="M 16.78125 19.519531 C 16.40625 19.519531 16.03125 19.519531 15.65625 19.519531 C 15.65625 19.160156 15.65625 18.796875 15.65625 18.433594 C 16.03125 18.433594 16.40625 18.433594 16.78125 18.433594 C 16.78125 18.796875 16.78125 19.160156 16.78125 19.519531 Z M 16.78125 19.519531 "/>
<path style=" stroke:none;fill-rule:evenodd;fill:rgb(50.588235%,0.784314%,44.313725%);fill-opacity:1;" d="M 16.78125 19.519531 C 17.898438 19.519531 19.015625 19.519531 20.132812 19.519531 C 20.132812 19.890625 20.132812 20.257812 20.132812 20.628906 C 20.109375 20.269531 20.101562 19.910156 20.109375 19.542969 C 19.007812 19.542969 17.90625 19.542969 16.804688 19.542969 C 16.8125 19.910156 16.804688 20.269531 16.78125 20.628906 C 16.78125 20.257812 16.78125 19.890625 16.78125 19.519531 Z M 16.78125 19.519531 "/>
<path style=" stroke:none;fill-rule:evenodd;fill:rgb(67.45098%,1.176471%,58.823529%);fill-opacity:1;" d="M 20.132812 20.628906 C 20.496094 20.652344 20.863281 20.660156 21.234375 20.652344 C 21.234375 21.734375 21.234375 22.820312 21.234375 23.90625 C 20.867188 23.90625 20.5 23.90625 20.132812 23.90625 C 19.765625 23.90625 19.398438 23.90625 19.03125 23.90625 C 19.03125 23.175781 19.03125 22.445312 19.03125 21.714844 C 18.28125 21.714844 17.53125 21.714844 16.78125 21.714844 C 16.78125 21.351562 16.78125 20.988281 16.78125 20.628906 C 16.804688 20.269531 16.8125 19.910156 16.804688 19.542969 C 17.90625 19.542969 19.007812 19.542969 20.109375 19.542969 C 20.101562 19.910156 20.109375 20.269531 20.132812 20.628906 Z M 20.132812 20.628906 "/>
<path style=" stroke:none;fill-rule:evenodd;fill:rgb(11.764706%,0%,9.411765%);fill-opacity:1;" d="M 20.132812 19.519531 C 20.140625 19.519531 20.148438 19.519531 20.15625 19.519531 C 20.523438 19.519531 20.886719 19.519531 21.253906 19.519531 C 21.253906 19.890625 21.253906 20.257812 21.253906 20.628906 C 20.882812 20.628906 20.507812 20.628906 20.132812 20.628906 C 20.132812 20.257812 20.132812 19.890625 20.132812 19.519531 Z M 20.132812 19.519531 "/>
<path style=" stroke:none;fill-rule:evenodd;fill:rgb(0%,0%,0%);fill-opacity:1;" d="M 20.15625 19.542969 C 20.515625 19.542969 20.875 19.542969 21.234375 19.542969 C 21.234375 19.898438 21.234375 20.25 21.234375 20.605469 C 20.875 20.605469 20.515625 20.605469 20.15625 20.605469 C 20.15625 20.25 20.15625 19.898438 20.15625 19.542969 Z M 20.15625 19.542969 "/>
<path style=" stroke:none;fill-rule:evenodd;fill:rgb(27.058824%,0.392157%,22.745098%);fill-opacity:1;" d="M 15.679688 20.628906 C 15.679688 21.722656 15.679688 22.8125 15.679688 23.90625 C 16.050781 23.898438 16.417969 23.90625 16.78125 23.929688 C 16.414062 23.929688 16.046875 23.929688 15.679688 23.929688 C 15.679688 24.289062 15.679688 24.652344 15.679688 25.015625 C 15.65625 24.65625 15.648438 24.292969 15.65625 23.929688 C 15.289062 23.929688 14.921875 23.929688 14.558594 23.929688 C 14.558594 23.921875 14.558594 23.914062 14.558594 23.90625 C 14.921875 23.90625 15.289062 23.90625 15.65625 23.90625 C 15.648438 22.808594 15.65625 21.71875 15.679688 20.628906 Z M 15.679688 20.628906 "/>
<path style=" stroke:none;fill-rule:evenodd;fill:rgb(52.156863%,0.392157%,43.529412%);fill-opacity:1;" d="M 15.679688 20.628906 C 16.046875 20.628906 16.414062 20.628906 16.78125 20.628906 C 16.78125 20.988281 16.78125 21.351562 16.78125 21.714844 C 17.519531 21.734375 18.261719 21.742188 19.007812 21.734375 C 19.007812 22.46875 19.007812 23.199219 19.007812 23.929688 C 19.375 23.929688 19.742188 23.929688 20.109375 23.929688 C 20.109375 24.28125 20.109375 24.636719 20.109375 24.992188 C 19.007812 24.992188 17.90625 24.992188 16.804688 24.992188 C 16.8125 24.632812 16.804688 24.277344 16.78125 23.929688 C 16.417969 23.90625 16.050781 23.898438 15.679688 23.90625 C 15.679688 22.8125 15.679688 21.722656 15.679688 20.628906 Z M 15.679688 20.628906 "/>
<path style=" stroke:none;fill-rule:evenodd;fill:rgb(49.411765%,0.784314%,43.529412%);fill-opacity:1;" d="M 20.132812 20.628906 C 20.507812 20.628906 20.882812 20.628906 21.253906 20.628906 C 21.253906 21.726562 21.253906 22.828125 21.253906 23.929688 C 20.882812 23.929688 20.507812 23.929688 20.132812 23.929688 C 20.132812 23.921875 20.132812 23.914062 20.132812 23.90625 C 20.5 23.90625 20.867188 23.90625 21.234375 23.90625 C 21.234375 22.820312 21.234375 21.734375 21.234375 20.652344 C 20.863281 20.660156 20.496094 20.652344 20.132812 20.628906 Z M 20.132812 20.628906 "/>
<path style=" stroke:none;fill-rule:evenodd;fill:rgb(22.745098%,0.392157%,18.823529%);fill-opacity:1;" d="M 10.082031 20.628906 C 10.105469 20.984375 10.113281 21.347656 10.105469 21.714844 C 11.214844 21.714844 12.324219 21.714844 13.433594 21.714844 C 13.433594 21.722656 13.433594 21.726562 13.433594 21.734375 C 12.316406 21.734375 11.199219 21.734375 10.082031 21.734375 C 10.082031 21.367188 10.082031 20.996094 10.082031 20.628906 Z M 10.082031 20.628906 "/>
<path style=" stroke:none;fill-rule:evenodd;fill:rgb(23.921569%,0.392157%,19.607843%);fill-opacity:1;" d="M 24.582031 20.628906 C 24.589844 20.628906 24.597656 20.628906 24.605469 20.628906 C 24.605469 20.996094 24.605469 21.367188 24.605469 21.734375 C 23.859375 21.742188 23.117188 21.734375 22.378906 21.714844 C 23.113281 21.714844 23.847656 21.714844 24.582031 21.714844 C 24.582031 21.351562 24.582031 20.988281 24.582031 20.628906 Z M 24.582031 20.628906 "/>
<path style=" stroke:none;fill-rule:evenodd;fill:rgb(60%,0.784314%,51.372549%);fill-opacity:1;" d="M 16.78125 21.714844 C 17.53125 21.714844 18.28125 21.714844 19.03125 21.714844 C 19.03125 22.445312 19.03125 23.175781 19.03125 23.90625 C 19.398438 23.90625 19.765625 23.90625 20.132812 23.90625 C 20.132812 23.914062 20.132812 23.921875 20.132812 23.929688 C 20.125 23.929688 20.117188 23.929688 20.109375 23.929688 C 19.742188 23.929688 19.375 23.929688 19.007812 23.929688 C 19.007812 23.199219 19.007812 22.46875 19.007812 21.734375 C 18.261719 21.742188 17.519531 21.734375 16.78125 21.714844 Z M 16.78125 21.714844 "/>
<path style=" stroke:none;fill-rule:evenodd;fill:rgb(67.45098%,1.176471%,58.823529%);fill-opacity:1;" d="M 14.558594 23.929688 C 14.921875 23.929688 15.289062 23.929688 15.65625 23.929688 C 15.648438 24.292969 15.65625 24.65625 15.679688 25.015625 C 16.046875 25.015625 16.414062 25.015625 16.78125 25.015625 C 16.78125 25.746094 16.78125 26.476562 16.78125 27.207031 C 16.414062 27.207031 16.046875 27.207031 15.679688 27.207031 C 15.304688 27.207031 14.929688 27.207031 14.558594 27.207031 C 14.558594 26.476562 14.558594 25.746094 14.558594 25.015625 C 14.191406 25.015625 13.824219 25.015625 13.457031 25.015625 C 13.457031 24.28125 13.457031 23.550781 13.457031 22.820312 C 13.457031 22.460938 13.457031 22.097656 13.457031 21.734375 C 13.816406 21.734375 14.175781 21.734375 14.535156 21.734375 C 14.527344 22.472656 14.535156 23.203125 14.558594 23.929688 Z M 14.558594 23.929688 "/>
<path style=" stroke:none;fill-rule:evenodd;fill:rgb(47.058824%,0.784314%,41.176471%);fill-opacity:1;" d="M 13.433594 21.714844 C 13.808594 21.714844 14.183594 21.714844 14.558594 21.714844 C 14.558594 22.445312 14.558594 23.175781 14.558594 23.90625 C 14.558594 23.914062 14.558594 23.921875 14.558594 23.929688 C 14.535156 23.203125 14.527344 22.472656 14.535156 21.734375 C 14.175781 21.734375 13.816406 21.734375 13.457031 21.734375 C 13.457031 22.097656 13.457031 22.460938 13.457031 22.820312 C 13.449219 22.820312 13.441406 22.820312 13.433594 22.820312 C 13.433594 22.460938 13.433594 22.097656 13.433594 21.734375 C 13.433594 21.726562 13.433594 21.722656 13.433594 21.714844 Z M 13.433594 21.714844 "/>
<path style=" stroke:none;fill-rule:evenodd;fill:rgb(52.156863%,0.392157%,43.529412%);fill-opacity:1;" d="M 13.433594 22.820312 C 13.433594 23.558594 13.433594 24.296875 13.433594 25.035156 C 13.800781 25.035156 14.167969 25.035156 14.535156 25.035156 C 14.535156 25.765625 14.535156 26.5 14.535156 27.230469 C 14.910156 27.230469 15.28125 27.230469 15.65625 27.230469 C 15.65625 27.589844 15.65625 27.953125 15.65625 28.316406 C 14.550781 28.316406 13.441406 28.316406 12.332031 28.316406 C 12.332031 27.945312 12.332031 27.574219 12.332031 27.207031 C 11.964844 27.207031 11.597656 27.207031 11.230469 27.207031 C 11.230469 26.113281 11.230469 25.019531 11.230469 23.929688 C 11.597656 23.929688 11.964844 23.929688 12.332031 23.929688 C 12.332031 23.566406 12.332031 23.207031 12.332031 22.84375 C 12.695312 22.820312 13.0625 22.8125 13.433594 22.820312 Z M 13.433594 22.820312 "/>
<path style=" stroke:none;fill-rule:evenodd;fill:rgb(17.647059%,0.392157%,14.117647%);fill-opacity:1;" d="M 12.332031 22.84375 C 12.332031 23.207031 12.332031 23.566406 12.332031 23.929688 C 11.964844 23.929688 11.597656 23.929688 11.230469 23.929688 C 11.222656 23.929688 11.214844 23.929688 11.207031 23.929688 C 11.570312 23.90625 11.9375 23.898438 12.308594 23.90625 C 12.300781 23.546875 12.308594 23.195312 12.332031 22.84375 Z M 12.332031 22.84375 "/>
<path style=" stroke:none;fill-rule:evenodd;fill:rgb(28.235294%,0.392157%,23.529412%);fill-opacity:1;" d="M 11.207031 23.929688 C 11.214844 23.929688 11.222656 23.929688 11.230469 23.929688 C 11.230469 25.019531 11.230469 26.113281 11.230469 27.207031 C 11.597656 27.207031 11.964844 27.207031 12.332031 27.207031 C 12.332031 27.574219 12.332031 27.945312 12.332031 28.316406 C 12.308594 27.957031 12.300781 27.59375 12.308594 27.230469 C 11.941406 27.230469 11.574219 27.230469 11.207031 27.230469 C 11.207031 26.128906 11.207031 25.027344 11.207031 23.929688 Z M 11.207031 23.929688 "/>
<path style=" stroke:none;fill-rule:evenodd;fill:rgb(0%,0%,0%);fill-opacity:1;" d="M 16.78125 23.929688 C 16.78125 24.289062 16.78125 24.652344 16.78125 25.015625 C 16.414062 25.015625 16.046875 25.015625 15.679688 25.015625 C 15.679688 24.652344 15.679688 24.289062 15.679688 23.929688 C 16.046875 23.929688 16.414062 23.929688 16.78125 23.929688 Z M 16.78125 23.929688 "/>
<path style=" stroke:none;fill-rule:evenodd;fill:rgb(43.529412%,0.392157%,36.078431%);fill-opacity:1;" d="M 16.78125 23.929688 C 16.804688 24.277344 16.8125 24.632812 16.804688 24.992188 C 17.90625 24.992188 19.007812 24.992188 20.109375 24.992188 C 20.109375 24.636719 20.109375 24.28125 20.109375 23.929688 C 20.117188 23.929688 20.125 23.929688 20.132812 23.929688 C 20.132812 24.289062 20.132812 24.652344 20.132812 25.015625 C 19.015625 25.015625 17.898438 25.015625 16.78125 25.015625 C 16.78125 24.652344 16.78125 24.289062 16.78125 23.929688 Z M 16.78125 23.929688 "/>
<path style=" stroke:none;fill-rule:evenodd;fill:rgb(19.215686%,0.784314%,15.686275%);fill-opacity:1;" d="M 16.78125 25.015625 C 17.898438 25.015625 19.015625 25.015625 20.132812 25.015625 C 19.027344 25.035156 17.917969 25.042969 16.804688 25.035156 C 16.804688 25.765625 16.804688 26.5 16.804688 27.230469 C 16.429688 27.230469 16.054688 27.230469 15.679688 27.230469 C 15.679688 27.222656 15.679688 27.214844 15.679688 27.207031 C 16.046875 27.207031 16.414062 27.207031 16.78125 27.207031 C 16.78125 26.476562 16.78125 25.746094 16.78125 25.015625 Z M 16.78125 25.015625 "/>
<path style=" stroke:none;fill-rule:evenodd;fill:rgb(58.431373%,0.784314%,49.803922%);fill-opacity:1;" d="M 13.433594 22.820312 C 13.441406 22.820312 13.449219 22.820312 13.457031 22.820312 C 13.457031 23.550781 13.457031 24.28125 13.457031 25.015625 C 13.824219 25.015625 14.191406 25.015625 14.558594 25.015625 C 14.558594 25.746094 14.558594 26.476562 14.558594 27.207031 C 14.929688 27.207031 15.304688 27.207031 15.679688 27.207031 C 15.679688 27.214844 15.679688 27.222656 15.679688 27.230469 C 15.671875 27.230469 15.664062 27.230469 15.65625 27.230469 C 15.28125 27.230469 14.910156 27.230469 14.535156 27.230469 C 14.535156 26.5 14.535156 25.765625 14.535156 25.035156 C 14.167969 25.035156 13.800781 25.035156 13.433594 25.035156 C 13.433594 24.296875 13.433594 23.558594 13.433594 22.820312 Z M 13.433594 22.820312 "/>
<use xlink:href="#surface23" mask="url(#mask6)"/>
<path style=" stroke:none;fill-rule:evenodd;fill:rgb(13.333333%,1.176471%,10.588235%);fill-opacity:1;" d="M 15.65625 27.230469 C 15.664062 27.230469 15.671875 27.230469 15.679688 27.230469 C 15.679688 27.597656 15.679688 27.96875 15.679688 28.335938 C 14.558594 28.34375 13.445312 28.335938 12.332031 28.316406 C 13.441406 28.316406 14.550781 28.316406 15.65625 28.316406 C 15.65625 27.953125 15.65625 27.589844 15.65625 27.230469 Z M 15.65625 27.230469 "/>
</g>
</svg>
