<svg width="72" height="72" viewBox="0 0 72 72" fill="none" xmlns="http://www.w3.org/2000/svg">
<path d="M50.9061 70.9453H21.0937C20.7831 70.9453 20.5312 70.6934 20.5312 70.3828V69.8203C20.5312 68.1117 21.9164 66.7266 23.625 66.7266H48.3749C50.0835 66.7266 51.4686 68.1117 51.4686 69.8203V70.3828C51.4686 70.6934 51.2168 70.9453 50.9061 70.9453Z" fill="#3A88DD"/>
<path d="M48.375 66.7266H44.1562C45.8648 66.7266 47.25 68.1117 47.25 69.8203V70.3828C47.25 70.6935 46.9981 70.9453 46.6875 70.9453H50.9063C51.2169 70.9453 51.4688 70.6935 51.4688 70.3828V69.8203C51.4688 68.1116 50.0836 66.7266 48.375 66.7266Z" fill="#265D98"/>
<path d="M45.8343 66.7267H26.1685C35.3428 61.4532 31.2651 44.4812 31.2651 44.4812H40.7365C40.7364 44.4812 36.6587 61.4532 45.8343 66.7267Z" fill="#3A88DD"/>
<path d="M40.735 44.4812H36.5163C36.5163 44.4812 32.4384 61.4532 41.6141 66.7267H45.8328C36.6572 61.4532 40.735 44.4812 40.735 44.4812Z" fill="#265D98"/>
<path d="M12.8672 6.2243C6.3436 6.2243 1.05469 11.5118 1.05469 18.0368C1.05469 24.5604 6.3436 29.8494 12.8672 29.8494C19.3908 29.8494 24.6797 24.5604 24.6797 18.0368C24.6797 11.5118 19.3908 6.2243 12.8672 6.2243ZM12.8672 25.6306C8.67939 25.6306 5.27345 22.2232 5.27345 18.0368C5.27345 13.849 8.67939 10.4431 12.8672 10.4431C17.055 10.4431 20.461 13.849 20.461 18.0368C20.461 22.2232 17.055 25.6306 12.8672 25.6306Z" fill="#265D98"/>
<path d="M59.1328 6.2243C52.6092 6.2243 47.3203 11.5118 47.3203 18.0368C47.3203 24.5604 52.6092 29.8494 59.1328 29.8494C65.6564 29.8494 70.9454 24.5604 70.9454 18.0368C70.9454 11.5118 65.6564 6.2243 59.1328 6.2243ZM59.1328 25.6306C54.945 25.6306 51.5391 22.2232 51.5391 18.0368C51.5391 13.849 54.945 10.4431 59.1328 10.4431C63.3207 10.4431 66.7266 13.849 66.7266 18.0368C66.7266 22.2232 63.3207 25.6306 59.1328 25.6306Z" fill="#265D98"/>
<path d="M36.0006 50.9603C23.69 50.9603 13.9102 40.6132 14.6036 28.3222L16.0962 1.86566C16.1219 1.41074 16.4982 1.05496 16.9538 1.05496H55.047C55.5026 1.05496 55.8791 1.41074 55.9047 1.86566L57.3973 28.3223C58.091 40.6132 48.3111 50.9603 36.0006 50.9603Z" fill="#3A88DD"/>
<path d="M57.3971 28.3222L55.9044 1.86566C55.8787 1.41074 55.5024 1.05496 55.0467 1.05496H50.828C51.2836 1.05496 51.6601 1.41074 51.6857 1.86566L53.1783 28.3223C53.8316 39.9022 45.188 49.7552 33.8906 50.8567C34.5845 50.9243 35.2877 50.9605 36 50.9605C48.3107 50.9603 58.0905 40.6132 57.3971 28.3222Z" fill="#265D98"/>
<path d="M59.133 5.1695C58.4699 5.1695 57.8084 5.22096 57.156 5.32179L56.9576 1.80632C56.9008 0.793403 56.0615 0 55.0469 0H51.5302C50.1336 0.0483748 50.1348 2.06155 51.5302 2.10937H54.8619L56.3442 28.3814C56.6631 34.0334 54.6972 39.4117 50.8086 43.5258C43.1757 51.9768 28.8246 51.9765 21.1919 43.5258C17.3033 39.4118 15.3374 34.0334 15.6563 28.3814L17.1387 2.10937H46.6265C48.023 2.06099 48.0219 0.0478123 46.6265 0H16.9537C15.9391 0 15.0999 0.793403 15.0431 1.80604L14.8447 5.32165C7.15039 4.06447 -0.0677233 10.2321 0.000479505 18.0368C-0.0227235 25.3699 6.23141 31.3003 13.5527 30.8841C13.9338 40.5886 21.5893 49.5421 31.0876 51.482C31.2776 56.5419 30.4632 62.8431 25.8698 65.6719H23.6254C21.3378 65.6719 19.477 67.5328 19.477 69.8203V70.3828C19.477 71.2745 20.2024 72 21.0941 72H50.9065C51.7982 72 52.5237 71.2745 52.5237 70.3828V69.8203C52.5237 67.5328 50.6628 65.6719 48.3753 65.6719H46.127C44.4123 64.6145 43.0989 62.9879 42.2227 60.8298C42.0034 60.2902 41.3889 60.0299 40.8486 60.2493C40.3089 60.4684 40.049 61.0836 40.2681 61.6233C40.9123 63.2103 41.7633 64.5636 42.8111 65.672H29.1945C32.5948 62.0819 33.3295 56.524 33.2092 51.8454C35.04 52.0714 36.9608 52.0714 38.7916 51.8454C38.7488 53.5255 38.82 55.1201 39.0084 56.5971C39.0794 57.1773 39.6216 57.5859 40.1881 57.5099C40.7658 57.4362 41.1746 56.908 41.1008 56.3302C40.9105 54.8382 40.8471 53.2106 40.9115 51.4828C50.411 49.5431 58.0663 40.5896 58.4478 30.8844C65.7693 31.3003 72.0231 25.3705 72.0001 18.0371C72.0002 10.9417 66.228 5.1695 59.133 5.1695ZM2.10985 18.0366C2.04502 11.4359 8.24121 6.24401 14.7251 7.44016L14.6052 9.56527C7.76295 8.12528 2.08102 15.2182 4.97718 21.5769C5.21666 22.1135 5.85327 22.3428 6.37189 22.1056C6.90289 21.8665 7.1397 21.242 6.90064 20.711C4.65655 15.7685 9.23149 10.336 14.4847 11.7008L13.7618 24.5118C12.3934 24.7084 10.9643 24.4456 9.75461 23.7861C9.24302 23.5079 8.60262 23.6969 8.32404 24.2086C8.04574 24.7204 8.23488 25.3608 8.74662 25.6391C10.2295 26.4454 11.9555 26.8086 13.6415 26.6469L13.5503 28.263C13.5408 28.4336 13.5338 28.6037 13.528 28.7737C7.3789 29.1738 2.08763 24.1998 2.10985 18.0366ZM48.3753 67.7813C49.4996 67.7813 50.4143 68.696 50.4143 69.8203V69.8906H21.5863V69.8203C21.5863 68.696 22.5011 67.7813 23.6254 67.7813H48.3753ZM57.5159 11.7007C61.5639 10.6133 65.7299 13.837 65.672 18.0368C65.7032 21.9591 62.1188 25.0832 58.2387 24.5118L57.5159 11.7007ZM59.133 28.7944C58.9134 28.7944 58.6929 28.787 58.4728 28.7736C58.4669 28.6036 58.46 28.4333 58.4505 28.2628L58.3592 26.6466C63.3755 27.1318 67.808 23.0751 67.7815 18.0366C67.843 12.6386 62.6647 8.42509 57.3954 9.56527L57.2754 7.4403C63.76 6.24485 69.9552 11.4356 69.8907 18.0368C69.8908 23.9686 65.065 28.7944 59.133 28.7944Z" fill="black"/>
<path opacity="0.49" d="M53.1318 31.0018L38.8089 17.1742L35.2179 16.8853L34.4749 16.4725C32.2802 16.8651 30.4375 18.5753 30.4375 20.6611C30.4375 21.7896 30.7901 22.5688 31.3302 23.1269L33.443 26.0486H30.7188C30.7188 27.2968 30.6804 27.9788 31.4259 28.7237L44.4806 40.9081C46.7153 40.3426 47.7846 38.7386 49.4169 37.1107C51.0493 35.4828 52.5598 33.2354 53.1318 31.0018Z" fill="url(#paint0_linear_814_1221)"/>
<path d="M34.4244 31.5249C34.4244 31.2294 34.4199 30.9336 34.4269 30.6383C34.4293 30.5405 34.3967 30.5114 34.303 30.4969C33.7187 30.4065 33.1531 30.2504 32.6165 30.0008C31.3626 29.4179 30.584 28.4518 30.2637 27.1189C30.2223 26.9465 30.1737 26.7744 30.1827 26.5937C30.1975 26.3007 30.4192 26.0777 30.7157 26.0746C31.1832 26.0695 31.6511 26.07 32.1186 26.0743C32.387 26.0767 32.6002 26.271 32.665 26.5641C32.7199 26.8128 32.791 27.0558 32.902 27.2862C33.1599 27.8217 33.5779 28.1883 34.1389 28.3759C34.9797 28.6572 35.8396 28.7123 36.6998 28.4722C37.3202 28.2991 37.8276 27.9563 38.1301 27.3719C38.4032 26.8442 38.4194 26.29 38.2313 25.7351C38.0837 25.2995 37.7387 25.043 37.3356 24.8549C36.8985 24.6509 36.4321 24.5404 35.9638 24.4346C35.4637 24.3217 34.9525 24.2779 34.4489 24.1874C33.7358 24.0591 33.0348 23.8891 32.377 23.5764C31.6791 23.2445 31.1118 22.775 30.7735 22.0664C30.5791 21.6593 30.4835 21.2273 30.442 20.7822C30.3943 20.2692 30.4143 19.7603 30.5595 19.2619C30.8123 18.3931 31.3332 17.7176 32.078 17.2075C32.736 16.7568 33.4727 16.508 34.2587 16.3937C34.3324 16.3829 34.3438 16.3541 34.3435 16.29C34.3414 15.7339 34.3376 15.1778 34.3446 14.6218C34.3474 14.3934 34.4446 14.1973 34.62 14.0454C34.7257 13.9538 34.8541 13.9158 34.9927 13.9154C35.374 13.9141 35.7551 13.9114 36.1364 13.9158C36.5295 13.9205 36.8259 14.2212 36.8265 14.6095C36.8274 15.1911 36.828 15.7726 36.8253 16.3541C36.825 16.4303 36.8385 16.4615 36.9263 16.4706C38.6716 16.6529 40.1021 17.9683 40.4245 19.6824C40.4897 20.0286 40.2441 20.3432 39.8892 20.3498C39.4506 20.3578 39.0115 20.3556 38.5727 20.3504C38.3249 20.3474 38.112 20.1875 38.0281 19.9514C37.92 19.6471 37.7862 19.357 37.5815 19.1034C37.2448 18.6859 36.7961 18.459 36.276 18.3661C35.5902 18.2437 34.9053 18.2386 34.2333 18.4478C33.7254 18.6058 33.3171 18.8954 33.1166 19.403C32.9208 19.8985 32.93 20.4062 33.1152 20.9028C33.258 21.2856 33.5656 21.5182 33.9241 21.6901C34.3574 21.8979 34.8212 22.0056 35.2913 22.0888C35.9683 22.2086 36.6559 22.263 37.3285 22.4119C38.0056 22.5617 38.6662 22.7544 39.2718 23.1011C40.1631 23.6112 40.6716 24.3795 40.8356 25.3801C40.9266 25.9358 40.9486 26.4931 40.8435 27.0487C40.626 28.1977 39.997 29.0751 39.0249 29.7185C38.42 30.1188 37.7514 30.3653 37.0385 30.493C36.9277 30.5129 36.9051 30.5526 36.906 30.6554C36.911 31.2209 36.9123 31.7866 36.9064 32.3523C36.904 32.5774 36.8099 32.771 36.6413 32.9241C36.5321 33.023 36.3982 33.0623 36.2526 33.0627C35.8713 33.0636 35.4901 33.0691 35.1091 33.062C34.713 33.0545 34.4251 32.7551 34.4242 32.3638C34.4239 32.0843 34.4244 31.8047 34.4244 31.5249Z" fill="#FEFEFE"/>
<path d="M49.9944 23.6713C49.937 26.7678 49.0161 29.579 47.1735 32.0736C45.5333 34.2945 43.4113 35.8954 40.8367 36.8967C40.5754 36.9984 40.3105 37.0895 40.0443 37.1772C39.9457 37.2098 39.8605 37.273 39.7486 37.2756C39.4694 37.282 39.2213 37.0553 39.1916 36.7514C39.1718 36.548 39.1839 36.3435 39.1833 36.1394C39.1827 35.8972 39.1791 35.6544 39.191 35.4126C39.2081 35.0637 39.3952 34.8274 39.717 34.7064C41.2964 34.1129 42.6987 33.2393 43.9088 32.0625C45.2397 30.7684 46.1965 29.2373 46.8156 27.4889C47.2895 26.1504 47.5397 24.7749 47.5141 23.3557C47.4655 20.6703 46.6145 18.2608 44.9612 16.1442C43.5981 14.3991 41.8679 13.1424 39.7896 12.3731C39.5009 12.2662 39.1785 11.8425 39.1823 11.5253C39.1871 11.1235 39.1782 10.7215 39.1869 10.3199C39.1911 10.1257 39.287 9.95887 39.4217 9.82483C39.5534 9.69365 39.7239 9.677 39.8949 9.73458C40.6837 10.0007 41.4576 10.3043 42.1924 10.6978C45.7736 12.616 48.1755 15.5108 49.3789 19.3913C49.6999 20.4267 49.8866 21.4887 49.9583 22.5709C49.9824 22.9375 49.9961 23.3037 49.9944 23.6713Z" fill="#FEFEFE"/>
<path d="M21.2665 23.3498C21.3213 20.2961 22.217 17.5178 24.0009 15.0372C25.3778 13.1227 27.1323 11.6493 29.2419 10.6011C29.8768 10.2856 30.5328 10.0219 31.2076 9.80535C31.2952 9.77723 31.3677 9.71588 31.4642 9.70595C31.7685 9.67498 32.0407 9.90173 32.0699 10.2259C32.0828 10.3688 32.08 10.5134 32.0798 10.6573C32.0794 10.9611 32.0843 11.2653 32.0717 11.5687C32.0572 11.9184 31.8693 12.1563 31.5476 12.2783C30.6129 12.6325 29.7285 13.0827 28.9074 13.654C26.8255 15.1023 25.3518 17.0199 24.4862 19.4084C24.1792 20.2555 23.9559 21.1222 23.8411 22.0159C23.7328 22.8591 23.7151 23.7048 23.7915 24.5526C23.9693 26.5251 24.5932 28.3448 25.6657 30.0064C26.7877 31.7446 28.2651 33.0987 30.0933 34.0657C30.556 34.3105 31.0338 34.5216 31.5254 34.7017C31.7976 34.8014 32.0779 35.1955 32.0797 35.4841C32.0821 35.8647 32.0785 36.2454 32.0795 36.626C32.0801 36.8229 31.9877 36.9844 31.8694 37.125C31.7395 37.2798 31.5569 37.307 31.3699 37.2446C30.4611 36.942 29.5762 36.5824 28.7374 36.1156C25.8069 34.4849 23.6894 32.1204 22.3793 29.0297C21.9146 27.9334 21.6052 26.7923 21.4278 25.6155C21.3147 24.8652 21.2607 24.1099 21.2665 23.3498Z" fill="#FEFEFE"/>
<defs>
<linearGradient id="paint0_linear_814_1221" x1="30.7157" y1="18.7488" x2="44.4864" y2="32.5156" gradientUnits="userSpaceOnUse">
<stop/>
<stop offset="1" stop-opacity="0"/>
</linearGradient>
</defs>
</svg>
