<?xml version="1.0" encoding="UTF-8"?>
<svg xmlns="http://www.w3.org/2000/svg" xmlns:xlink="http://www.w3.org/1999/xlink" width="px" height="35px" viewBox="0 0 35 35" version="1.1">
<defs>
<filter id="alpha" filterUnits="objectBoundingBox" x="0%" y="0%" width="100%" height="100%">
  <feColorMatrix type="matrix" in="SourceGraphic" values="0 0 0 0 1 0 0 0 0 1 0 0 0 0 1 0 0 0 1 0"/>
</filter>
<mask id="mask0">
  <g filter="url(#alpha)">
<rect x="0" y="0" width="35" height="35" style="fill:rgb(0%,0%,0%);fill-opacity:0.490196;stroke:none;"/>
  </g>
</mask>
<linearGradient id="linear0" gradientUnits="userSpaceOnUse" x1="30.7157" y1="18.7488" x2="44.4864" y2="32.5156" gradientTransform="matrix(0.486111,0,0,0.486111,0,0)">
<stop offset="0" style="stop-color:rgb(0%,0%,0%);stop-opacity:1;"/>
<stop offset="1" style="stop-color:rgb(0%,0%,0%);stop-opacity:0;"/>
</linearGradient>
<clipPath id="clip1">
  <rect x="0" y="0" width="35" height="35"/>
</clipPath>
<g id="surface5" clip-path="url(#clip1)">
<path style=" stroke:none;fill-rule:nonzero;fill:url(#linear0);" d="M 25.828125 15.070312 L 18.867188 8.347656 L 17.121094 8.207031 L 16.757812 8.007812 C 15.691406 8.199219 14.796875 9.03125 14.796875 10.042969 C 14.796875 10.59375 14.96875 10.972656 15.230469 11.242188 L 16.257812 12.664062 L 14.933594 12.664062 C 14.933594 13.269531 14.914062 13.601562 15.277344 13.964844 L 21.621094 19.886719 C 22.707031 19.609375 23.230469 18.832031 24.023438 18.039062 C 24.816406 17.25 25.550781 16.15625 25.828125 15.070312 Z M 25.828125 15.070312 "/>
</g>
</defs>
<g id="surface1">
<path style=" stroke:none;fill-rule:nonzero;fill:rgb(22.745098%,53.333333%,86.666667%);fill-opacity:1;" d="M 24.746094 34.488281 L 10.253906 34.488281 C 10.101562 34.488281 9.980469 34.363281 9.980469 34.214844 L 9.980469 33.941406 C 9.980469 33.109375 10.652344 32.4375 11.484375 32.4375 L 23.515625 32.4375 C 24.347656 32.4375 25.019531 33.109375 25.019531 33.941406 L 25.019531 34.214844 C 25.019531 34.363281 24.898438 34.488281 24.746094 34.488281 Z M 24.746094 34.488281 "/>
<path style=" stroke:none;fill-rule:nonzero;fill:rgb(14.901961%,36.470588%,59.607843%);fill-opacity:1;" d="M 23.515625 32.4375 L 21.464844 32.4375 C 22.296875 32.4375 22.96875 33.109375 22.96875 33.941406 L 22.96875 34.214844 C 22.96875 34.363281 22.847656 34.488281 22.695312 34.488281 L 24.746094 34.488281 C 24.898438 34.488281 25.019531 34.363281 25.019531 34.214844 L 25.019531 33.941406 C 25.019531 33.109375 24.347656 32.4375 23.515625 32.4375 Z M 23.515625 32.4375 "/>
<path style=" stroke:none;fill-rule:nonzero;fill:rgb(22.745098%,53.333333%,86.666667%);fill-opacity:1;" d="M 22.28125 32.4375 L 12.722656 32.4375 C 17.179688 29.875 15.199219 21.621094 15.199219 21.621094 L 19.800781 21.621094 C 19.800781 21.621094 17.820312 29.875 22.28125 32.4375 Z M 22.28125 32.4375 "/>
<path style=" stroke:none;fill-rule:nonzero;fill:rgb(14.901961%,36.470588%,59.607843%);fill-opacity:1;" d="M 19.800781 21.621094 L 17.75 21.621094 C 17.75 21.621094 15.769531 29.875 20.230469 32.4375 L 22.28125 32.4375 C 17.820312 29.875 19.800781 21.621094 19.800781 21.621094 Z M 19.800781 21.621094 "/>
<path style=" stroke:none;fill-rule:nonzero;fill:rgb(14.901961%,36.470588%,59.607843%);fill-opacity:1;" d="M 6.253906 3.027344 C 3.082031 3.027344 0.511719 5.597656 0.511719 8.769531 C 0.511719 11.9375 3.082031 14.511719 6.253906 14.511719 C 9.425781 14.511719 11.996094 11.9375 11.996094 8.769531 C 11.996094 5.597656 9.425781 3.027344 6.253906 3.027344 Z M 6.253906 12.460938 C 4.21875 12.460938 2.5625 10.804688 2.5625 8.769531 C 2.5625 6.730469 4.21875 5.078125 6.253906 5.078125 C 8.289062 5.078125 9.945312 6.730469 9.945312 8.769531 C 9.945312 10.804688 8.289062 12.460938 6.253906 12.460938 Z M 6.253906 12.460938 "/>
<path style=" stroke:none;fill-rule:nonzero;fill:rgb(14.901961%,36.470588%,59.607843%);fill-opacity:1;" d="M 28.746094 3.027344 C 25.574219 3.027344 23.003906 5.597656 23.003906 8.769531 C 23.003906 11.9375 25.574219 14.511719 28.746094 14.511719 C 31.917969 14.511719 34.488281 11.9375 34.488281 8.769531 C 34.488281 5.597656 31.917969 3.027344 28.746094 3.027344 Z M 28.746094 12.460938 C 26.710938 12.460938 25.054688 10.804688 25.054688 8.769531 C 25.054688 6.730469 26.710938 5.078125 28.746094 5.078125 C 30.78125 5.078125 32.4375 6.730469 32.4375 8.769531 C 32.4375 10.804688 30.78125 12.460938 28.746094 12.460938 Z M 28.746094 12.460938 "/>
<path style=" stroke:none;fill-rule:nonzero;fill:rgb(22.745098%,53.333333%,86.666667%);fill-opacity:1;" d="M 17.5 24.773438 C 11.515625 24.773438 6.761719 19.742188 7.097656 13.769531 L 7.824219 0.90625 C 7.835938 0.6875 8.019531 0.511719 8.242188 0.511719 L 26.757812 0.511719 C 26.980469 0.511719 27.164062 0.6875 27.175781 0.90625 L 27.902344 13.769531 C 28.238281 19.742188 23.484375 24.773438 17.5 24.773438 Z M 17.5 24.773438 "/>
<path style=" stroke:none;fill-rule:nonzero;fill:rgb(14.901961%,36.470588%,59.607843%);fill-opacity:1;" d="M 27.902344 13.769531 L 27.175781 0.90625 C 27.164062 0.6875 26.980469 0.511719 26.757812 0.511719 L 24.707031 0.511719 C 24.929688 0.511719 25.113281 0.6875 25.125 0.90625 L 25.851562 13.769531 C 26.167969 19.398438 21.964844 24.1875 16.472656 24.722656 C 16.8125 24.753906 17.152344 24.773438 17.5 24.773438 C 23.484375 24.773438 28.238281 19.742188 27.902344 13.769531 Z M 27.902344 13.769531 "/>
<path style=" stroke:none;fill-rule:nonzero;fill:rgb(0%,0%,0%);fill-opacity:1;" d="M 28.746094 2.511719 C 28.421875 2.511719 28.101562 2.539062 27.785156 2.585938 L 27.6875 0.878906 C 27.660156 0.386719 27.253906 0 26.757812 0 L 25.050781 0 C 24.371094 0.0234375 24.371094 1.003906 25.050781 1.023438 L 26.667969 1.023438 L 27.390625 13.796875 C 27.542969 16.542969 26.589844 19.160156 24.699219 21.160156 C 20.988281 25.265625 14.011719 25.265625 10.300781 21.160156 C 8.410156 19.160156 7.457031 16.542969 7.609375 13.796875 L 8.332031 1.023438 L 22.664062 1.023438 C 23.34375 1 23.34375 0.0234375 22.664062 0 L 8.242188 0 C 7.75 0 7.339844 0.386719 7.3125 0.878906 L 7.214844 2.585938 C 3.476562 1.976562 -0.03125 4.972656 0 8.769531 C -0.0117188 12.332031 3.027344 15.214844 6.589844 15.011719 C 6.773438 19.730469 10.496094 24.082031 15.113281 25.027344 C 15.203125 27.484375 14.808594 30.546875 12.574219 31.925781 L 11.484375 31.925781 C 10.371094 31.925781 9.46875 32.828125 9.46875 33.941406 L 9.46875 34.214844 C 9.46875 34.648438 9.820312 35 10.253906 35 L 24.746094 35 C 25.179688 35 25.53125 34.648438 25.53125 34.214844 L 25.53125 33.941406 C 25.53125 32.828125 24.628906 31.925781 23.515625 31.925781 L 22.421875 31.925781 C 21.589844 31.410156 20.949219 30.617188 20.523438 29.570312 C 20.417969 29.308594 20.121094 29.179688 19.855469 29.289062 C 19.59375 29.394531 19.46875 29.695312 19.574219 29.957031 C 19.886719 30.726562 20.300781 31.386719 20.8125 31.925781 L 14.191406 31.925781 C 15.84375 30.179688 16.203125 27.476562 16.144531 25.203125 C 17.035156 25.3125 17.96875 25.3125 18.855469 25.203125 C 18.835938 26.019531 18.871094 26.792969 18.960938 27.511719 C 18.996094 27.792969 19.261719 27.992188 19.535156 27.957031 C 19.816406 27.921875 20.015625 27.664062 19.980469 27.382812 C 19.886719 26.65625 19.855469 25.867188 19.886719 25.027344 C 24.503906 24.082031 28.226562 19.730469 28.414062 15.011719 C 31.972656 15.214844 35.011719 12.332031 35 8.769531 C 35 5.320312 32.195312 2.511719 28.746094 2.511719 Z M 1.027344 8.769531 C 0.992188 5.558594 4.007812 3.035156 7.15625 3.617188 L 7.101562 4.648438 C 3.773438 3.949219 1.011719 7.398438 2.417969 10.488281 C 2.535156 10.75 2.84375 10.859375 3.097656 10.746094 C 3.355469 10.628906 3.46875 10.324219 3.355469 10.066406 C 2.261719 7.664062 4.488281 5.023438 7.042969 5.6875 L 6.691406 11.914062 C 6.023438 12.011719 5.328125 11.882812 4.742188 11.5625 C 4.492188 11.425781 4.183594 11.519531 4.046875 11.769531 C 3.910156 12.015625 4.003906 12.328125 4.25 12.464844 C 4.972656 12.855469 5.8125 13.03125 6.632812 12.953125 L 6.585938 13.738281 C 6.582031 13.820312 6.578125 13.90625 6.574219 13.988281 C 3.585938 14.183594 1.015625 11.765625 1.027344 8.769531 Z M 23.515625 32.949219 C 24.0625 32.949219 24.507812 33.394531 24.507812 33.941406 L 24.507812 33.972656 L 10.492188 33.972656 L 10.492188 33.941406 C 10.492188 33.394531 10.9375 32.949219 11.484375 32.949219 Z M 27.960938 5.6875 C 29.925781 5.160156 31.953125 6.726562 31.925781 8.769531 C 31.9375 10.675781 30.195312 12.191406 28.308594 11.914062 Z M 28.746094 13.996094 C 28.636719 13.996094 28.53125 13.992188 28.425781 13.988281 C 28.421875 13.90625 28.417969 13.820312 28.414062 13.738281 L 28.367188 12.953125 C 30.808594 13.1875 32.960938 11.21875 32.949219 8.769531 C 32.980469 6.144531 30.460938 4.09375 27.902344 4.648438 L 27.84375 3.617188 C 30.996094 3.035156 34.007812 5.558594 33.976562 8.769531 C 33.976562 11.652344 31.628906 13.996094 28.746094 13.996094 Z M 28.746094 13.996094 "/>
<use xlink:href="#surface5" mask="url(#mask0)"/>
<path style=" stroke:none;fill-rule:nonzero;fill:rgb(99.607843%,99.607843%,99.607843%);fill-opacity:1;" d="M 16.734375 15.324219 C 16.734375 15.179688 16.730469 15.039062 16.734375 14.894531 C 16.738281 14.847656 16.71875 14.832031 16.675781 14.824219 C 16.390625 14.78125 16.117188 14.703125 15.855469 14.582031 C 15.246094 14.300781 14.867188 13.832031 14.710938 13.183594 C 14.691406 13.097656 14.667969 13.015625 14.671875 12.925781 C 14.679688 12.785156 14.789062 12.675781 14.929688 12.675781 C 15.160156 12.671875 15.386719 12.671875 15.613281 12.675781 C 15.742188 12.675781 15.847656 12.769531 15.878906 12.914062 C 15.90625 13.035156 15.941406 13.152344 15.992188 13.265625 C 16.121094 13.523438 16.324219 13.703125 16.59375 13.792969 C 17.003906 13.929688 17.421875 13.957031 17.839844 13.839844 C 18.140625 13.757812 18.386719 13.589844 18.535156 13.304688 C 18.667969 13.050781 18.675781 12.78125 18.585938 12.511719 C 18.511719 12.296875 18.34375 12.171875 18.148438 12.082031 C 17.9375 11.984375 17.710938 11.929688 17.480469 11.878906 C 17.238281 11.824219 16.992188 11.800781 16.746094 11.757812 C 16.398438 11.695312 16.058594 11.613281 15.738281 11.460938 C 15.398438 11.300781 15.125 11.070312 14.960938 10.726562 C 14.863281 10.527344 14.820312 10.320312 14.796875 10.101562 C 14.773438 9.851562 14.785156 9.605469 14.855469 9.363281 C 14.976562 8.941406 15.230469 8.613281 15.59375 8.363281 C 15.914062 8.144531 16.269531 8.023438 16.652344 7.96875 C 16.6875 7.964844 16.695312 7.949219 16.695312 7.917969 C 16.695312 7.648438 16.691406 7.378906 16.695312 7.109375 C 16.695312 6.996094 16.742188 6.902344 16.828125 6.828125 C 16.878906 6.78125 16.941406 6.765625 17.011719 6.765625 C 17.195312 6.765625 17.382812 6.761719 17.566406 6.765625 C 17.757812 6.765625 17.902344 6.914062 17.902344 7.101562 C 17.902344 7.382812 17.902344 7.667969 17.902344 7.949219 C 17.902344 7.988281 17.90625 8.003906 17.949219 8.007812 C 18.796875 8.09375 19.492188 8.734375 19.652344 9.566406 C 19.683594 9.734375 19.5625 9.890625 19.390625 9.890625 C 19.175781 9.894531 18.964844 9.894531 18.75 9.890625 C 18.628906 9.890625 18.527344 9.8125 18.484375 9.699219 C 18.433594 9.550781 18.367188 9.410156 18.269531 9.285156 C 18.105469 9.082031 17.886719 8.972656 17.632812 8.929688 C 17.300781 8.867188 16.96875 8.867188 16.640625 8.96875 C 16.394531 9.042969 16.195312 9.183594 16.097656 9.433594 C 16.003906 9.671875 16.007812 9.917969 16.097656 10.160156 C 16.167969 10.347656 16.316406 10.460938 16.492188 10.542969 C 16.703125 10.644531 16.925781 10.695312 17.15625 10.738281 C 17.484375 10.796875 17.820312 10.824219 18.144531 10.894531 C 18.476562 10.96875 18.796875 11.0625 19.089844 11.230469 C 19.523438 11.476562 19.769531 11.851562 19.851562 12.335938 C 19.894531 12.609375 19.90625 12.878906 19.855469 13.148438 C 19.75 13.707031 19.441406 14.132812 18.96875 14.445312 C 18.675781 14.640625 18.351562 14.761719 18.003906 14.824219 C 17.949219 14.832031 17.941406 14.851562 17.941406 14.902344 C 17.941406 15.175781 17.945312 15.453125 17.941406 15.726562 C 17.9375 15.835938 17.894531 15.929688 17.8125 16.003906 C 17.757812 16.054688 17.695312 16.070312 17.621094 16.070312 C 17.4375 16.074219 17.253906 16.074219 17.066406 16.070312 C 16.875 16.066406 16.734375 15.921875 16.734375 15.730469 C 16.734375 15.597656 16.734375 15.460938 16.734375 15.324219 Z M 16.734375 15.324219 "/>
<path style=" stroke:none;fill-rule:nonzero;fill:rgb(99.607843%,99.607843%,99.607843%);fill-opacity:1;" d="M 24.304688 11.507812 C 24.273438 13.011719 23.828125 14.378906 22.929688 15.589844 C 22.132812 16.671875 21.101562 17.449219 19.851562 17.9375 C 19.722656 17.984375 19.59375 18.03125 19.464844 18.070312 C 19.417969 18.089844 19.375 18.117188 19.320312 18.121094 C 19.1875 18.125 19.066406 18.011719 19.050781 17.867188 C 19.042969 17.765625 19.046875 17.667969 19.046875 17.566406 C 19.046875 17.449219 19.046875 17.332031 19.050781 17.214844 C 19.058594 17.042969 19.152344 16.929688 19.308594 16.871094 C 20.074219 16.582031 20.757812 16.15625 21.34375 15.585938 C 21.992188 14.957031 22.457031 14.210938 22.757812 13.363281 C 22.988281 12.710938 23.109375 12.042969 23.097656 11.351562 C 23.074219 10.046875 22.660156 8.875 21.855469 7.847656 C 21.195312 7 20.351562 6.386719 19.34375 6.015625 C 19.203125 5.960938 19.046875 5.757812 19.046875 5.601562 C 19.050781 5.40625 19.046875 5.210938 19.050781 5.015625 C 19.050781 4.921875 19.097656 4.839844 19.164062 4.777344 C 19.226562 4.710938 19.308594 4.703125 19.394531 4.730469 C 19.777344 4.863281 20.152344 5.007812 20.511719 5.199219 C 22.25 6.132812 23.417969 7.539062 24.003906 9.425781 C 24.160156 9.929688 24.25 10.445312 24.285156 10.972656 C 24.296875 11.148438 24.304688 11.328125 24.304688 11.507812 Z M 24.304688 11.507812 "/>
<path style=" stroke:none;fill-rule:nonzero;fill:rgb(99.607843%,99.607843%,99.607843%);fill-opacity:1;" d="M 10.335938 11.351562 C 10.363281 9.867188 10.800781 8.515625 11.667969 7.308594 C 12.335938 6.378906 13.1875 5.664062 14.214844 5.152344 C 14.523438 5 14.84375 4.871094 15.171875 4.765625 C 15.214844 4.753906 15.25 4.722656 15.296875 4.71875 C 15.441406 4.703125 15.574219 4.8125 15.589844 4.972656 C 15.597656 5.039062 15.59375 5.109375 15.59375 5.179688 C 15.59375 5.328125 15.597656 5.476562 15.589844 5.625 C 15.582031 5.792969 15.492188 5.910156 15.335938 5.96875 C 14.882812 6.140625 14.453125 6.359375 14.050781 6.636719 C 13.039062 7.339844 12.324219 8.273438 11.902344 9.433594 C 11.753906 9.847656 11.644531 10.269531 11.589844 10.703125 C 11.535156 11.113281 11.527344 11.523438 11.566406 11.933594 C 11.652344 12.894531 11.953125 13.777344 12.476562 14.585938 C 13.023438 15.429688 13.738281 16.089844 14.628906 16.558594 C 14.855469 16.679688 15.085938 16.78125 15.324219 16.867188 C 15.457031 16.917969 15.59375 17.109375 15.59375 17.25 C 15.59375 17.433594 15.59375 17.621094 15.59375 17.804688 C 15.59375 17.898438 15.550781 17.980469 15.492188 18.046875 C 15.429688 18.121094 15.339844 18.136719 15.25 18.105469 C 14.808594 17.957031 14.378906 17.78125 13.96875 17.554688 C 12.546875 16.761719 11.515625 15.613281 10.878906 14.113281 C 10.652344 13.578125 10.503906 13.023438 10.417969 12.453125 C 10.359375 12.085938 10.335938 11.71875 10.335938 11.351562 Z M 10.335938 11.351562 "/>
</g>
</svg>
